<?xml version="1.0" encoding="utf-8"?>
<!-- Generator: Adobe Illustrator 25.2.3, SVG Export Plug-In . SVG Version: 6.00 Build 0)  -->
<svg version="1.1" id="katman_1" xmlns="http://www.w3.org/2000/svg" xmlns:xlink="http://www.w3.org/1999/xlink" x="0px" y="0px"
	 viewBox="0 0 700 700" style="enable-background:new 0 0 700 700;" xml:space="preserve">
<style type="text/css">
	.st0{enable-background:new    ;}
</style>
<g>
	<g class="st0">
		<path d="M219.8,642.7h3.2l-4,11.8h-3.2l-2.2-8l-2.3,8h-3.2l-4-11.8h3.3l2.3,8.6l2.3-8.6h3l2.4,8.6L219.8,642.7z"/>
		<path d="M238.5,642.7h3.2l-4,11.8h-3.2l-2.2-8l-2.3,8h-3.2l-4-11.8h3.3l2.3,8.6l2.3-8.6h3l2.4,8.6L238.5,642.7z"/>
		<path d="M257.3,642.7h3.2l-4,11.8h-3.2l-2.2-8l-2.3,8h-3.2l-4-11.8h3.3l2.3,8.6l2.3-8.6h3l2.4,8.6L257.3,642.7z"/>
		<path d="M262.9,652.1c0.3,0.3,0.4,0.6,0.4,1s-0.1,0.8-0.4,1.1s-0.6,0.4-1,0.4s-0.8-0.1-1-0.4c-0.3-0.3-0.4-0.6-0.4-1.1
			c0-0.4,0.1-0.8,0.4-1c0.3-0.3,0.6-0.4,1-0.4S262.6,651.9,262.9,652.1z"/>
		<path d="M265.1,642.7h8.8v2.5h-5.7v2.6h5.3v2.5h-5.3v4.3h-3.1L265.1,642.7L265.1,642.7z"/>
		<path d="M282.4,654.5l-1.7-3.3h-0.1h-2.2v3.3h-3.1v-11.8h5.3c1.6,0,2.8,0.4,3.6,1.1c0.9,0.7,1.3,1.7,1.3,3.1
			c0,0.9-0.2,1.7-0.5,2.3s-0.9,1.1-1.6,1.5l2.5,3.9L282.4,654.5L282.4,654.5z M278.4,648.8h2.2c0.6,0,1.1-0.2,1.5-0.5
			c0.3-0.3,0.5-0.8,0.5-1.4c0-0.6-0.2-1-0.5-1.3s-0.8-0.5-1.5-0.5h-2.2V648.8z"/>
		<path d="M287.5,642.7h9.3v2.5h-6.2v2.2h5.6v2.4h-5.6v2.2h6.4v2.5h-9.5L287.5,642.7L287.5,642.7z"/>
		<path d="M298.9,642.7h9.3v2.5H302v2.2h5.6v2.4H302v2.2h6.4v2.5h-9.5V642.7z"/>
		<path d="M316.4,645.3c-0.7-0.2-1.3-0.4-1.8-0.4c-0.4,0-0.7,0.1-0.9,0.2c-0.2,0.1-0.3,0.3-0.3,0.6s0.1,0.5,0.3,0.6
			c0.2,0.2,0.4,0.3,0.7,0.4c0.3,0.1,0.7,0.2,1.2,0.4c0.8,0.2,1.5,0.5,2,0.7s1,0.6,1.4,1.1s0.6,1.1,0.6,1.9c0,0.8-0.2,1.5-0.6,2
			c-0.4,0.6-1,1-1.7,1.3s-1.5,0.4-2.4,0.4c-1,0-2-0.2-2.9-0.5c-1-0.3-1.8-0.8-2.5-1.4l1.2-2.4c0.6,0.5,1.3,1,2.1,1.3
			s1.5,0.5,2.2,0.5c0.5,0,0.8-0.1,1.1-0.3c0.3-0.2,0.4-0.4,0.4-0.7s-0.1-0.5-0.3-0.7c-0.2-0.2-0.4-0.3-0.7-0.4
			c-0.3-0.1-0.7-0.2-1.3-0.4c-0.8-0.2-1.5-0.5-2-0.7s-1-0.6-1.4-1c-0.4-0.5-0.6-1.1-0.6-1.9c0-0.7,0.2-1.4,0.6-1.9s0.9-1,1.7-1.3
			c0.7-0.3,1.5-0.4,2.5-0.4c0.9,0,1.7,0.1,2.5,0.4c0.8,0.2,1.6,0.6,2.2,1l-1.2,2.5C317.7,645.9,317.1,645.6,316.4,645.3z"/>
		<path d="M319.9,642.7h3.3l2.9,8.5l3-8.5h3.2l-4.6,11.8h-3.2L319.9,642.7z"/>
		<path d="M341.1,648.5h2.7v4.7c-0.6,0.5-1.4,0.8-2.3,1.1s-1.8,0.4-2.6,0.4c-1.2,0-2.3-0.3-3.2-0.8s-1.7-1.3-2.3-2.2
			c-0.6-0.9-0.8-2-0.8-3.1s0.3-2.2,0.9-3.1s1.3-1.7,2.3-2.2s2.1-0.8,3.3-0.8c0.9,0,1.8,0.2,2.6,0.5c0.9,0.3,1.6,0.8,2.2,1.3
			l-1.8,2.2c-0.4-0.4-0.9-0.7-1.5-1c-0.6-0.2-1.1-0.4-1.6-0.4c-0.6,0-1.2,0.2-1.7,0.5s-0.9,0.7-1.2,1.2c-0.3,0.5-0.4,1.1-0.4,1.8
			s0.1,1.3,0.4,1.8s0.7,1,1.2,1.3s1.1,0.5,1.7,0.5s1.3-0.2,2-0.6L341.1,648.5L341.1,648.5z"/>
		<path d="M354.1,643.4c0.9,0.5,1.7,1.2,2.2,2.1c0.5,0.9,0.8,1.9,0.8,3.1c0,1.2-0.3,2.2-0.8,3.1c-0.5,0.9-1.3,1.6-2.3,2.1
			s-2.1,0.7-3.3,0.7h-5v-11.8h5.1C352.1,642.7,353.2,642.9,354.1,643.4z M352.5,651.6c0.5-0.3,0.8-0.7,1.1-1.2
			c0.3-0.5,0.4-1.1,0.4-1.8s-0.1-1.3-0.4-1.8s-0.7-0.9-1.1-1.2s-1-0.4-1.7-0.4h-1.9v6.8h2.1C351.5,652,352.1,651.9,352.5,651.6z"/>
		<path d="M367.4,643.3c1,0.5,1.7,1.3,2.3,2.2c0.6,0.9,0.8,2,0.8,3.1c0,1.2-0.3,2.2-0.8,3.1s-1.3,1.7-2.3,2.2s-2.1,0.8-3.3,0.8
			s-2.3-0.3-3.3-0.8s-1.7-1.3-2.3-2.2s-0.8-2-0.8-3.1s0.3-2.2,0.8-3.1c0.6-0.9,1.3-1.6,2.3-2.2c1-0.5,2.1-0.8,3.3-0.8
			S366.4,642.8,367.4,643.3z M362.5,645.6c-0.5,0.3-0.9,0.7-1.2,1.3s-0.4,1.1-0.4,1.8s0.1,1.2,0.4,1.8s0.7,1,1.2,1.3s1,0.5,1.6,0.5
			s1.1-0.2,1.6-0.5s0.9-0.7,1.2-1.3c0.3-0.5,0.4-1.1,0.4-1.8c0-0.6-0.1-1.2-0.4-1.8c-0.3-0.5-0.7-1-1.2-1.3s-1-0.5-1.6-0.5
			C363.6,645.1,363,645.3,362.5,645.6z"/>
		<path d="M386.3,642.7h3.2l-4,11.8h-3.2l-2.2-8l-2.3,8h-3.2l-4-11.8h3.3l2.3,8.6l2.3-8.6h3l2.4,8.6L386.3,642.7z"/>
		<path d="M398.7,642.7h2.9v11.8h-2.7l-5.4-7.1v7.1h-2.9v-11.8h2.7l5.4,7.1V642.7z"/>
		<path d="M403.8,642.7h3.1v9.2h5v2.6h-8.1V642.7z"/>
		<path d="M422.2,643.3c1,0.5,1.7,1.3,2.3,2.2c0.6,0.9,0.8,2,0.8,3.1c0,1.2-0.3,2.2-0.8,3.1s-1.3,1.7-2.3,2.2s-2.1,0.8-3.3,0.8
			s-2.3-0.3-3.3-0.8s-1.7-1.3-2.3-2.2s-0.8-2-0.8-3.1s0.3-2.2,0.8-3.1c0.6-0.9,1.3-1.6,2.3-2.2c1-0.5,2.1-0.8,3.3-0.8
			S421.2,642.8,422.2,643.3z M417.4,645.6c-0.5,0.3-0.9,0.7-1.2,1.3s-0.4,1.1-0.4,1.8s0.1,1.2,0.4,1.8s0.7,1,1.2,1.3s1,0.5,1.6,0.5
			s1.1-0.2,1.6-0.5s0.9-0.7,1.2-1.3c0.3-0.5,0.4-1.1,0.4-1.8c0-0.6-0.1-1.2-0.4-1.8c-0.3-0.5-0.7-1-1.2-1.3s-1-0.5-1.6-0.5
			S417.9,645.3,417.4,645.6z"/>
		<path d="M435.2,654.5l-0.8-2.1h-5.1l-0.8,2.1h-3.2l5.1-11.8h3.2l5,11.8H435.2z M430.2,650.1h3.3l-1.6-4.2L430.2,650.1z"/>
		<path d="M447.9,643.4c0.9,0.5,1.7,1.2,2.2,2.1c0.5,0.9,0.8,1.9,0.8,3.1c0,1.2-0.3,2.2-0.8,3.1c-0.5,0.9-1.3,1.6-2.3,2.1
			s-2.1,0.7-3.3,0.7h-5v-11.8h5.1C445.9,642.7,447,642.9,447.9,643.4z M446.3,651.6c0.5-0.3,0.8-0.7,1.1-1.2
			c0.3-0.5,0.4-1.1,0.4-1.8s-0.1-1.3-0.4-1.8s-0.7-0.9-1.1-1.2s-1-0.4-1.7-0.4h-1.9v6.8h2.1C445.3,652,445.9,651.9,446.3,651.6z"/>
		<path d="M454,652.1c0.3,0.3,0.4,0.6,0.4,1s-0.1,0.8-0.4,1.1s-0.6,0.4-1,0.4s-0.8-0.1-1-0.4c-0.3-0.3-0.4-0.6-0.4-1.1
			c0-0.4,0.1-0.8,0.4-1c0.3-0.3,0.6-0.4,1-0.4S453.8,651.9,454,652.1z"/>
		<path d="M463.4,645.6c-0.5-0.3-1-0.4-1.6-0.4s-1.1,0.1-1.6,0.4c-0.5,0.3-0.9,0.7-1.2,1.2c-0.3,0.5-0.4,1.1-0.4,1.7
			c0,0.6,0.1,1.2,0.4,1.7s0.7,0.9,1.2,1.2s1,0.4,1.6,0.4c0.5,0,1-0.1,1.5-0.4c0.5-0.2,1-0.6,1.4-1l1.8,1.9c-0.6,0.7-1.4,1.2-2.3,1.6
			c-0.9,0.4-1.8,0.6-2.6,0.6c-1.2,0-2.2-0.3-3.2-0.8s-1.7-1.3-2.2-2.2s-0.8-2-0.8-3.1s0.3-2.2,0.8-3.1c0.5-0.9,1.3-1.6,2.3-2.2
			c1-0.5,2-0.8,3.2-0.8c0.9,0,1.7,0.2,2.6,0.5c0.9,0.4,1.6,0.9,2.2,1.5l-1.8,2.2C464.4,646.2,463.9,645.8,463.4,645.6z"/>
		<path d="M476.5,643.3c1,0.5,1.7,1.3,2.3,2.2c0.6,0.9,0.8,2,0.8,3.1c0,1.2-0.3,2.2-0.8,3.1s-1.3,1.7-2.3,2.2s-2.1,0.8-3.3,0.8
			c-1.2,0-2.3-0.3-3.3-0.8s-1.7-1.3-2.3-2.2s-0.8-2-0.8-3.1s0.3-2.2,0.8-3.1c0.6-0.9,1.3-1.6,2.3-2.2c1-0.5,2.1-0.8,3.3-0.8
			C474.5,642.5,475.6,642.8,476.5,643.3z M471.7,645.6c-0.5,0.3-0.9,0.7-1.2,1.3s-0.4,1.1-0.4,1.8s0.1,1.2,0.4,1.8
			c0.3,0.5,0.7,1,1.2,1.3s1,0.5,1.6,0.5s1.1-0.2,1.6-0.5s0.9-0.7,1.2-1.3c0.3-0.5,0.4-1.1,0.4-1.8c0-0.6-0.1-1.2-0.4-1.8
			c-0.3-0.5-0.7-1-1.2-1.3s-1-0.5-1.6-0.5S472.2,645.3,471.7,645.6z"/>
		<path d="M481.2,642.7h3.4l3.4,6.9l3.4-6.9h3.4v11.8H492V647l-3,6.3h-2l-3-6.3v7.5h-2.7L481.2,642.7L481.2,642.7z"/>
	</g>
</g>
<g id="jPuemL_1_">
	<g>
		<path d="M172.1,353.7c-6.7-1.8-12.8-3.5-18.9-5c-9.8-2.5-18.6-7.1-26.4-13.4c-7.3-5.9-15.3-11.2-21.7-18
			c-8.4-8.8-16-18.5-23.4-28.2c-11.8-15.5-20.9-32.7-29-50.3c-7.9-17.3-14-35.3-17.1-54.2c-1.6-9.7-2.5-19.4-1.9-29.2
			c0.4-6.4,1.9-12.8,3.1-19.1c1-5,5.3-6.6,9.3-8.1c17.1-6.7,34.9-9,53-7.6c20.3,1.5,40.1,5.4,59.3,12.7c18.5,7.1,36.1,16,52.2,27.4
			c10.4,7.3,20.5,15.2,30.2,23.5c8.7,7.4,17.1,15.3,24.9,23.6c8.2,8.6,15.6,18,23.2,27.2c11.7,14,21.8,29,31.1,44.7
			c0.3,0.5,0.7,0.9,1,1.2c0.2,0.2,0.5,0.3,1,0.5c1-5.4,2.4-10.6,2.9-15.9c0.3-3.6-0.7-7.3-1.5-10.9c-0.9-4-0.3-7.5,2.5-10.6
			c0.5-0.6,0.7-1.9,0.5-2.7c-3.2-19.9-12.2-37.1-24.5-52.7c-4.5-5.7-9.4-11-14.6-16c-4.7-4.5-11.1-5.6-17.5-5.9
			c-1.7-0.1-3.5-0.7-4.9-1.6c-0.4-0.3,0.1-3,0.9-3.6c1.6-1.2,3.8-2.6,5.6-2.4c14.3,1.5,24,10.2,32.2,21
			c8.6,11.2,15.5,23.5,21.2,36.4c2.9,6.5,4.7,13.6,6.6,20.6c1,3.6,2,4.8,5.5,5c3.3,0.2,4.4-1.8,5.3-4.6c3.6-10.5,7.1-21.1,11.1-31.5
			c3.7-9.8,8.9-18.8,15.2-27.1c7.5-9.8,16.1-18.2,28.6-21.3c3-0.8,6-0.5,8.3,1.5c1.1,0.9,1.9,2.7,1.9,4.1c-0.1,2-1.9,2.3-3.7,2.2
			c-12.9-0.5-21.9,6.6-29.7,15.7c-6.1,7.1-11.2,15.1-14.5,23.7c-4.5,11.5-8.1,23.4-11.9,35.2c-0.7,2.1-0.5,4.4,1.6,6.3
			c2.1,1.9,2.2,4.6,1.5,7.3c-2.3,9.2-1.8,16.5,1.8,24c2.5-5.6,7.4-8.2,12-11.1c1.4-0.9,2.5-3.3,2.7-5.2c1.2-8.7,5.9-12,13.4-12.9
			c1.9-0.2,3.8,0,6,0c-1.4-6.3-2.3-12.1,0-17.9c2.2-5.6,6.3-8.7,12-9.7c4.2-0.8,8.5-1.2,12.8-2c3.3-0.6,5.3-1.8,4.7-6.2
			c-1.4-9.6,3.7-17,9.4-24.1c2-2.4,4-4.8,5.9-7.4c1.3-1.8,2.1-4,5-3.7c0.5,0.1,1.6-1.4,1.7-2.2c0.9-9,9.3-12.1,17.4-11
			c1.2,0.2,2.4,0.1,4,0.2c0-1.4,0.3-2.6-0.1-3.6c-2.3-5.6,2-9.7,6.5-12.1c3.8-2,7.7-4.1,10.8-7c3.4-3.1,6.8-2.7,10.1-1.2
			c4.9,2.2,9.7,4.8,14.4,7.4c4.1,2.3,5.8,6.8,4.6,11.3c-0.1,0.4,0,0.8,0,1.6c2.2-0.8,4.2-1.4,6.2-2.2c0.5-0.2,1.1-1,1.1-1.6
			c0.1-10.2,3.9-19.1,9.4-27.4c2.3-3.4,4.8-6.7,7.3-9.9c0.6-0.8,1.7-1.2,3.1-2.2c2.3,4.5,4.4,8.7,7,13.8c1.5-2.7,2.8-4.7,3.7-6.9
			c1.7-4.3,3.2-5.2,7.3-3.2c2.2,1,2.8,0.3,4.4-1.2c2.3-2.2,5.5-4.1,8.6-4.7c6-1.1,11.7-2.7,17.3-4.9c5.7-2.2,11.5-0.2,17.3,0.8
			c3.6,0.6,7.3,1.2,10.9,1.2c4.3,0,7.5,1.4,10,4.9c0.7,1,1.6,1.8,2.6,2.9c1.4-1.5,2.4-3.1,3.9-4.1c3.3-2.3,7-1.8,10.8,1.1
			c1.7,1.3,3.2,2.9,5,4.1c2.3,1.6,4.7,3,7.2,4.3c5.8,3,7.7,8.2,8.2,14.2c0.6,6.8-0.7,13.4-3.5,19.6c-1.7,3.7-1.6,7.3-0.4,11.1
			c0.3,0.9,0.5,1.8,0.9,2.9c1.4,0.1,2.8,0.2,4.1,0.4c1.2,2.9-0.3,5.1-1.7,7.3c-3.7,5.7-6.8,11.9-10.9,17.2c-3.6,4.8-8.2,8.9-12.6,13
			c-1.7,1.6-2.4,2.6-1.5,4.9c1.9,4.7,3.6,9.5,5.3,14.3c2.7,7.7,0.1,14.4-3.7,20.9c-0.7,1.2-1.2,3-1,4.4c2,14.6-7.8,30.8-23.7,32.2
			c-2.7,0.2-5.5,1.3-7.8,2.8c-3.3,2.1-6.7,3-10.5,2.6c-2.4-0.2-3.8,0.7-5.4,2.6c-1.7,1.9-4.6,3.1-7.1,3.6c-3.8,0.8-7.7,0.8-11.6,1.1
			c-0.1,0.6-0.1,1.1-0.2,1.7c5.5,2,11.1,4,16.6,6c1,0.4,2.2,0.4,3.1,0.9c1.7,1,2.6,2.5,0.8,4.2c-7,6.8-14.6,12.8-23.6,17
			c-8,3.7-16.3,5.1-25,4.7c-2.5-0.1-4.9-0.6-7.3-1.1c-2.5-0.6-3.1,0.2-2.7,2.7c0.8,5,1.7,10.1,1.8,15.1c0.1,4.1-0.8,8.2-1.5,12.2
			c-0.4,2.6-2.2,3.6-4.8,2.9c-1.8-0.5-3.6-0.9-5.4-1.1c-0.7-0.1-1.7,0.4-2.1,0.9c-2.4,2.6-4.6,5.3-7.3,8.4c1,0,2.2,0.2,3.2,0
			c5.9-1.5,11.3-0.1,16.7,2.4c2.3,1.1,3.5,2.8,3.5,5.3c0.1,2.6-1.7,3.6-3.6,4.4c-5.2,2.3-10.6,3-17.1,2.3c2.8,1.8,5,3.1,6.9,4.7
			c1.8,1.6,3.9,3.4,4.7,5.5c0.8,2.1,0.2,4.7,0.2,8c4,2.7,9,6.1,14,9.4c2.1,1.4,4.1,2.8,6.2,4.2c2.4,1.5,2.6,2.7,0.1,4.2
			c-3.2,1.9-6.8,3.3-10.2,4.8c-2.3,1-4.7,1.9-7.1,2.9c2.9,4.5,5.8,8.7,8.2,13.1c1.8,3.3,3,6.9,4.3,10.5c0.4,1.1,0.4,3-0.3,3.5
			c-1,0.8-2.7,1-4.1,0.9c-4.4-0.3-8.8-0.9-12.5-1.3c-0.9,2.5-1.6,4.5-2.4,6.8c2.3,1.1,5.4,2.3,8.3,4c3.1,1.8,5.8,4.1,6.8,7.9
			c0.8,3.1-0.9,5.5-4.2,5.7c-5.7,0.3-10.5-2-15.3-4.6c-1.9-1-3.7-2-5.6-3.1c-0.2,0.2-0.4,0.5-0.5,0.7c0.9,0.7,1.6,1.6,2.6,2.1
			c7.5,4.1,15,8.2,22.4,12.4c0.8,0.5,1.6,1.8,1.6,2.8c0,0.6-1.4,1.4-2.3,1.7c-3.5,1-7.1,1.8-10.7,2.6c-0.6,0.1-1.1,0.4-2.1,0.8
			c4.3,2.9,8.4,5.4,12.2,8.3c7.6,5.7,13.2,13.1,16.9,21.8c3.1,7.3,6.2,14.5,9.3,21.8c0.3,0.7,1,1.4,1,2c0,1.8-0.3,3.5-0.5,5.3
			c-1.3-0.5-2.6-1.1-4-1.5c-6.7-2.4-13.3-5.1-20.2-7.1c-9.4-2.8-17.9-7.2-25-13.9c-4-3.8-7.6-8-11.5-12.3c-0.8,3.9-1.6,7.8-2.4,11.7
			c-1.2,5.9-2.3,11.8-3.7,17.7c-0.3,1.3-1.6,2.3-2.4,3.5c-0.9-1-2.3-1.8-2.7-2.9c-3.8-11-7.6-22-10.8-33.2c-1-3.6-0.2-7.8-0.2-11.8
			c0-1-0.4-2.1-0.6-3.1c-0.3,0-0.6,0.1-0.9,0.1c-0.1,0.7-0.2,1.3-0.2,2c-0.2,6.9-0.3,13.8-0.8,20.6c-0.1,1.4-1.2,3.3-2.4,3.9
			c-1.9,1-2.7-1.1-3.4-2.5c-3.1-6.5-6.3-12.9-9.3-19.4c-2.8-6.2-3.9-12.8-4-19.6c0-1.8-0.5-3.7-0.8-5.5c-0.4,0-0.7,0-1.1,0
			c-0.8,3.6-1.7,7.1-2.4,10.7c-0.8,3.9-1.5,7.8-2,11.8c-0.1,1.1,0.6,2.7,1.5,3.5c4,3.5,8.9,6.1,11.1,11.5c1.9,4.6,1.6,8.8-2.6,11.5
			c-5.1,3.3-10.5,6.3-16.1,8.4c-7.8,3-12.5-1.5-16.6-6.4c-4.8-5.9-6.2-12.8-6.5-20.3c-0.2-6.8-1.2-13.5-1.9-20.3
			c-0.1-1.2-1-2.2-1.5-3.4c-0.3,0.1-0.7,0.2-1,0.3c0.6,3.2,1.3,6.5,1.7,9.7c0.9,6.6,0.5,12.9-4.6,18.2c-3.1,3.2-6.7,3.3-10.5,2.6
			c-3.9-0.7-7.8-1.7-11.7-2.5c-3.9-0.8-6.6-2.9-8-6.7c-4.2-11.2-0.9-20.8,5.4-30.2c4.1-6.1,7.2-12.8,10.6-19.3
			c0.9-1.6-2.3-9.7-3.8-10c-1-0.2-2.2,0.3-3.5,0.6c0,5.7,0.2,11.1-0.1,16.6c-0.3,4.9-1.7,9.9-6.9,11.5c-5.8,1.7-12,2.8-17.8,0.1
			c-6-2.8-7.4-8.7-8.2-14.5c-0.8-6.2,0.7-12.3,2.8-18.2c0.2-0.5,0.3-1.2,0.2-1.8c-2.6-7.9-5.3-15.9-7.9-23.8c-0.7-2-1.1-4.1-1.7-6.3
			c-4.3,1.9-8,3.7-8.4,8.8c-0.1,1.5-1.1,3-1.9,4.4c-1.2,2.2-4.2,2.2-5.4-0.1c-1.1-2.1-1.8-4.4-2.7-6.6c-0.5-1.1-0.9-2.3-2-3.2
			c-0.4,3.4-0.4,6.8-1.1,10.1c-2.2,10.1-4.2,20.3-7.3,30.1c-3.6,11.5-9.2,22.2-16.2,32.1c-11.5,16.2-25.4,29.7-43.9,37.7
			c-6.7,2.9-13.7,5-21.1,5.8c-11.5,1.2-22-1.8-32.3-6.2c-5.7-2.5-11.6-4.8-17.6-6.5c-3-0.8-6.5-0.6-9.5,0.1
			c-12.7,3.2-23.3,10.3-33,18.8c-4.2,3.6-8.2,7.5-12.5,11c-2.5,2.1-5.7,2.2-8.3,0.5c-2.7-1.9-3-5.2-1.3-7.9
			c3.3-5.4,6.9-10.7,10.6-15.9c5.3-7.7,11.2-15.1,16.1-23.1c5.2-8.6,4.7-18,2.2-27.4c-2.2-8.5-5.1-17-6.5-25.7
			c-1.4-8.7-1.9-17.5-1.2-26.5c1.1-13.7,4.1-26.8,8.6-39.7c3.9-11.1,8.7-21.7,14.8-31.7C171.1,356.2,171.5,355.2,172.1,353.7z
			 M304.2,332.9c-1.4-0.2-1.9-0.4-2.3-0.3c-1.9,0.6-3.9,1.4-5.8,2.1c-14.1,5-26.9,12.5-37.9,22.6c-8.9,8.2-15.2,18.2-18.3,30.1
			c-3.1,12.1-0.5,22.6,8.6,31.1c6,5.7,14.8,6.8,20.4-0.3c4.2-5.3,8.3-10.9,11.3-16.9c6.5-12.8,12.2-25.9,18.2-38.9
			c1.2-2.6,2.1-5.3,3.2-7.9c-0.4-0.2-0.7-0.4-1.1-0.6c-4.1,5.8-8.3,11.6-12.4,17.4c-0.3-0.9-0.2-1.6,0.1-2.2
			c2.8-5.1,5.7-10.2,8.5-15.3c0.5-0.9,0.7-1.9,1-2.8c-0.4-0.2-0.7-0.3-1.1-0.5c-2.8,3.5-5.5,7-8.3,10.5c1-3.3,3.1-6.1,2.4-10.8
			c-6.8,5.9-12.8,11.1-19,16.5c0.1-0.5,0-0.8,0.1-1c4.9-7.8,14.2-11.9,17.5-21.1c0.6-1.6,2.8-2.6,4.3-3.8
			C297,338.4,300.2,335.9,304.2,332.9z M293,285.3c0-0.2,0.1-0.3,0.1-0.5c1.8,0.5,3.6,1,5.4,1.5c0.2-0.3,0.3-0.6,0.5-0.9
			c-1.6-1.7-3.3-3.3-4.9-5.1c-0.6-0.6-1.5-1.6-1.3-2c0.8-2.1-0.7-2.6-1.9-3.5c-3.1-2.3-6-4.6-9-7c0.5-0.5,1-1,1.5-1.6
			c9.5,5.6,17.2,13.9,27.1,19.7c0-1.1,0.1-1.4,0-1.5c-6.9-8.6-13.8-17.2-20.8-25.8c-0.8-1-2.4-1.4-3.6-1.9c-3.5-1.4-7-2.7-10.4-4.2
			c-3.7-1.7-7.2-3.7-10.8-5.4c-0.9-0.4-1.9-0.4-3.8-0.8c1.4,1.9,2.1,2.9,3.1,4.2c-2.6-0.3-4.8-0.5-6.1-0.6c-1.1,2-2.6,3.6-2.2,4.3
			c0.7,1.4,3.4,2,3.6,3.3c0.5,3.3,3,3.6,5.2,4.5c3.3,1.4,6.7,2.9,10,4.4c0,0.4,0.1,0.8,0.1,1.3c-1.4,0.5-3.2,1.7-4.3,1.3
			c-6.2-2.5-11.5-0.4-17.2,2.6c2.4,4,7.7,2.7,10.9,5.9c-2.1,0.1-3.9,0.3-5.6,0.4c-0.2,0.4-0.3,0.7-0.5,1.1c2.8,2.1,5.7,4.2,9.3,6.8
			c-2.4,0.6-4.4,1.2-6.6,1.6c-1.8,0.4-3.6,0.4-5.4,0.9c-1.8,0.5-2.5,1.5-1,3.3c1,1.2,1.2,2.6-0.9,3.5c-1,0.4-1.6,1.8-2.8,3.3
			c4.9,0.6,8.9,1,12.9,1.5c0,0.2,0,0.5,0,0.7c-3.6,0.8-7.2,1.5-10.7,2.3c0.1,0.4,0.1,0.8,0.2,1.2c3.5,0.6,6.9,1.3,10.4,1.7
			c3.4,0.4,6.9,0.2,10.4,2.3c-7.9,1.6-15.3,3-22.7,4.5c0,0.4,0,0.8,0,1.2c2.3,0.3,4.6,0.6,6.9,0.9c0,0.3,0,0.5,0,0.8
			c-1.6,0.6-3.1,1.2-4.3,1.6c0,1.9,0,3.5,0,5.4c3.5,2,7.5,0.4,11.3-0.2c13.1-1.9,26.2-4,39.3-6c2.4-0.4,4.7-0.9,7-1.3
			c-0.1-0.3-0.1-0.6-0.2-1c-2.2-0.1-4.4-0.2-7-0.4c0.9-1.2,1.4-1.9,2.1-2.9c-6.1-1.4-11.8-2.8-17.7-4.1c1-0.6,1.9-1,2.7-1.5
			c-0.2-0.4-0.5-0.8-0.7-1.1c-3.4-1-6.7-1.9-10.1-2.9c8.4-0.9,16.4,2.3,24.6,2.6c0.1-0.4,0.3-0.7,0.4-1.1c-5.4-3-10.8-6.1-16.3-9.1
			c0.1-0.2,0.2-0.4,0.3-0.6c1.5,0.1,3,0.2,4.5,0.3c0.1-0.3,0.2-0.6,0.3-1c-4-2.5-8.1-5-12.1-7.5c0.1-0.2,0.1-0.3,0.2-0.5
			c6.5,2.7,13,5.3,19.5,8c0.2-0.4,0.4-0.9,0.6-1.3C299.1,289.1,296.1,287.2,293,285.3z M390.5,281.1c2.2-4.1,4.1-7.9,6.3-11.6
			c2.2-3.8,2.4-7.1-0.3-9.1c-3.2-2.3-6.5-4.9-10.2-6c-9.3-2.7-13.6,1.2-13.8,9.5c-0.2,4.5-1.8,6.9-5.6,8.4c-1.3,0.5-2.5,1.2-3.8,1.9
			c-4.7,2.4-7.8,6.2-9.5,11c-2.7,7.6,2,17.6,10,21.5c2.4,1.2,3.7,2.7,4.5,5.1c1,3.1,2.1,6.2,3.6,9c5,8.9,14.6,13.5,24.3,11.8
			c1.5-0.3,3.4-1.3,4.1-2.5c2.6-4.8,4.7-9.8,7.1-15c-3.9-3.8-8.4-8.2-12.9-12.6c0.7-0.2,1.8-0.5,2.9-0.8c0.1-0.3,0.1-0.6,0.2-0.9
			c-6-4.1-13.4-5.2-20.8-7.6c7-2.1,13,0.9,19.1,1.6c0.1-0.4,0.3-0.9,0.4-1.3c-3.1-1.3-6.2-2.6-9.3-3.9c0-0.2,0.1-0.3,0.1-0.5
			c1.7-0.1,3.5-0.2,5.2-0.3c-2.4-6.8-9.4-7.3-14-11c0.2-0.4,0.4-0.7,0.5-1.1C382.7,278.1,386.8,279.7,390.5,281.1z M170.6,318.3
			c3.4,1.8,6.2,1,9.2-0.2c10-3.9,20.3-6.3,31-7.6c5.5-0.7,10.9-1.8,15.7-4.8c3.3-2,4.5-5.1,3.8-8.8c-1-5.4-4.3-8.3-9.2-10.3
			c-12.1-5-24.4-6.1-37.1-3c-13.6,3.4-26.1,9.2-38.2,16.1c-2,1.2-1.9,1.9-0.1,3.2c3.1,2.2,5.8,4.8,8.9,7c1,0.7,2.7,0.7,4,0.7
			c1.8,0,3.6-0.6,5.3-0.3c3.4,0.4,6.7,1.1,10.1-0.4c2.8-1.3,6-2,9-3c0.1,0.3,0.3,0.6,0.4,0.8C179.3,311.2,175,314.7,170.6,318.3z
			 M296.7,447.7c3-15.9,5.2-31.9,9.3-47.4c4.1-15.6,10.3-30.8,15.5-46.1c-0.1-0.1-0.3-0.3-0.4-0.4c-3.7,5.9-7.5,11.8-11.2,17.7
			c0.4-2.6,1.7-4.7,2.5-7c0.8-2.3,1.2-4.7,1.8-7c-0.5-0.2-1-0.4-1.5-0.5c-2.7,5.2-5.3,10.5-8.4,16.5c0-1.4-0.1-2,0-2.5
			c3-9,6.1-17.9,9.2-26.9c0.6-1.9,1.3-3.8,2-5.6c-0.4-0.2-0.7-0.3-1.1-0.5c-0.7,1-1.6,1.9-2.1,3c-5.6,11.9-11.1,23.9-16.6,35.9
			c-3.9,8.5-7.7,17.2-11.8,25.7c-3,6.3-6.5,12.3-7.2,19.6c-0.6,6.7-2.3,13.4-3.2,20.1c-0.5,3.7-0.6,7.4-0.8,11.1
			c0.3,0.2,0.7,0.4,1,0.6c1-0.6,2.3-1.1,2.9-2c1.1-1.9,2.1-4,2.7-6.1c1-3.6,1.6-7.3,2.4-10.9c0.3,0,0.6,0,0.9,0.1
			c0.2,3.8-2.7,8.3,3.1,11.6c2-5.3,3.9-10.4,5.8-15.5c0.1,0,0.3,0,0.4,0c0,5.8,0,11.6,0,17.4C293.5,448.1,295.1,447.9,296.7,447.7z
			 M412.8,316.8c-0.9,0.6-2.2,1.3-3.1,2.3c-7.5,9.6-8.5,16.1-2.7,26.2c3.7,6.3,10,8.6,17.1,7.7c2.5-0.3,5.7,0.2,7.7,1.6
			c9.5,6.6,19.7,9,30.8,5.6c5.7-1.7,10.5-4.8,12.5-10.9c2.4-7.2,0-13.3-4.4-19c-1.5-1.9-2.7-1.9-4.7-0.9c-3,1.5-6.2,2.7-9.3,4
			c-0.7,0.3-1.4,0.7-2,1.1c1.4,2.2,2.6,4,3.8,5.9c-0.3,0.2-0.6,0.4-0.8,0.6c-1.6-1.4-3.1-3.1-4.9-4.1c-1.8-1-4-1.2-6.6-1.9
			c1.3,3.4,2.2,5.7,3.1,8c-0.3,0.1-0.6,0.2-0.8,0.3c-2.1-2.2-4.1-4.4-6.5-6.9c-0.5,2.8-0.9,4.9-1.2,7c-0.4,0-0.7,0-1.1,0
			c-0.4-1.2-0.9-2.4-1.1-3.6c-0.5-3.5-2.4-4.7-5.8-5.9c-4.4-1.5-8.8-3.9-12.4-6.9C417.6,324.5,415.6,320.6,412.8,316.8z
			 M552.5,255.8c-1.9-1-3.1-2-4.3-2.2c-5.4-0.8-10.6,0-15.3,2.9c-4.8,2.9-6.9,8.3-4.8,13.5c1.1,2.8,0.9,5.1-0.2,7.7
			c-2,4.8-0.1,9.1,4.6,10.8c8.4,3,16.9,5.9,25.3,8.9c3.2,1.1,6.3,0.6,8.6-1.4c2.2-1.9,4.3-2,6.8-1.5c6.8,1.3,10.7-3,9-9.8
			c-1.3-5.3-2.6-10.7-4-16c-0.2-0.8-1.2-1.8-1.9-1.9c-3.9-0.4-7.8-0.9-10.9,2.6c-1.4,1.6-3.3,2.8-5,4.2c-0.2-0.2-0.4-0.4-0.7-0.7
			c1.3-2.1,2.7-4.2,4.1-6.6c-1.3-0.3-2.2-0.4-2.7-0.5c-0.1-1.2,0.1-2.5-0.4-2.8c-0.9-0.5-2.3-0.8-3.2-0.5c-2.4,1-4.7,2.3-7,3.5
			c-2.5,1.3-5,2.7-7.4,4c-0.2-0.3-0.4-0.6-0.6-0.9c4.1-3.1,8.3-6.2,12.4-9.3c-0.1-0.2-0.2-0.4-0.3-0.6c-3.2,0.6-6.3,1.1-9.5,1.7
			c-0.1-0.3-0.3-0.6-0.4-0.9C547.2,258.8,549.4,257.5,552.5,255.8z M461.8,439.9c-0.2,0.3-0.5,0.6-0.7,0.9c0.8,0.5,1.6,1,2.4,1.5
			c3,1.9,6,3.8,9.1,5.6c7.2,4.1,15.2,4.9,23.1,5.5c11.1,0.8,22.3,1.1,33.5,1.5c0.8,0,2.2-0.4,2.4-0.9c0.3-0.7-0.3-1.8-0.7-2.6
			c-3.5-6.2-8.3-11.4-13.4-16.2c-11.3-10.5-24.2-16.9-40.1-15.1c-4.5,0.5-8.7,2.1-12.1,5.6c1.7,0,3.4,0,5.1,0c0,0.2,0,0.4,0,0.6
			c-1.3,0.7-2.5,1.4-4.6,2.5c6.7,1,12.7,0.3,18,3.4c-7.8-0.5-15.4-0.8-23.2,0.3c1.4,4.7,4.7,5.7,8.5,6.6c4.6,1.1,9,3,13.5,4.5
			c-0.1,0.3-0.2,0.7-0.3,1C475.5,443,468.7,441.5,461.8,439.9z M579.7,158.7c0.5-0.1,0.9-0.1,1.4-0.2c1.1,7,2.2,14,3.4,21
			c7.1-3.6,5.4-11.1,8.4-16.2c0.3,0.1,0.6,0.1,0.9,0.2c-1,5.7-1.9,11.4-2.9,17.1c1.4-0.9,2.2-2,2.9-3.1c7.8-12.2,9.6-24.7,2.3-37.8
			c-1.9-3.4-4.1-6.5-8.5-7.7c0.1,1.4,0.2,2.3,0.4,3.6c-1.1-0.5-2-0.9-3.2-1.5c0.8,4.6,1.5,8.7,2.2,12.9c-0.4,0.1-0.7,0.1-1.1,0.2
			c-1.1-3.8-2-7.7-3.3-11.3c-0.8-2.1-2-4.8-3.7-5.6c-2.6-1.2-5.4,0-7.6,2.4c-2.7,3-5.8,5.4-9.8,6.7c-1.5,0.5-3.2,2.5-3.7,4.1
			c-2,6.3-0.1,12.6,0.6,18.9c0.1,0.8,0.6,1.7,1.2,2.3c3.1,3.4,6,6.8,9.3,10c2.5,2.4,5.4,4.4,8.5,6.8c0.2-2.1,0.3-3.6,0.4-5.1
			c0.3,0.2,0.6,0.3,0.9,0.5c0.6-0.9,1.6-1.8,1.6-2.6c0-3.2-0.4-6.5-0.5-9.7C579.7,162.5,579.7,160.6,579.7,158.7z M163.1,177
			c-0.8,4.2-1.7,7.5-2.1,10.9c-0.7,5.2-1,10.5-1.6,15.8c-0.7,5.6-0.5,11.2,3.3,15.7c5.6,6.6,11.7,12.8,17.7,19.2
			c2.5,2.7,3.2,2.5,4.2-0.9c3.6-12.9,7.2-25.8,10.6-38.7c1.8-6.6,0.4-9.6-6.1-12.2C180.8,183.4,172.3,180.5,163.1,177z M423.9,244.3
			c3.4-1.8,6.4-3.8,9.6-5.2c8.4-3.6,16.9-4.6,25.6-0.9c4.1,1.7,5.3,1,5.2-3.5c0-1.4-0.3-2.8-0.6-4.2c-1-4.3-2.5-5.2-6.8-6.2
			c-3.9-0.9-7.8-2.5-11.5-4c-8.5-3.5-16.8-4.7-25.3,0.1c-2.7,1.5-5.7,2.5-8.7,3.3c-3.2,0.8-6.8,0.6-9.9,1.6
			c-2.6,0.8-5.3,2.4-7.1,4.4c-3.9,4.4-3,10.1-2.6,15.3c0.4,6,3.7,10.4,8.9,13.5c3.2-5.5,7.4-9.3,13.4-11.2c0.8-0.3,1.7-1.8,1.8-2.8
			c0.3-1.9,0.1-3.9,0.1-5.8c0.3,0,0.7-0.1,1-0.1c1,1.4,1.9,2.9,3.4,5.1c0.3-3.2,0.5-5.3,0.8-7.4c0.4,0,0.8,0,1.2-0.1
			C422.8,239,423.3,241.6,423.9,244.3z M191.4,341.3c0.1,0.3,0.2,0.6,0.3,0.9c2.6-0.6,5.2-1.1,7.8-1.8c13.8-3.8,27.7-7.6,41.5-11.4
			c1.1-0.3,2.5-1.2,2.8-2.1c1-2.8-1.4-8.7-4.1-10.3c-7.8-4.9-16.5-5.9-25.3-3.9c-9.7,2.1-19.3,4.7-28.7,7.7
			c-6.8,2.2-13.4,5.4-20,8.1c-0.1,0.4-0.1,0.9-0.2,1.3c3.9,1,3.9,8.4,10.3,5.4c0.2-0.1,0.8,0.6,1.2,0.7c0.8,0.2,1.6,0.3,2.4,0.5
			c2.3,0.5,5.1,0.2,6.6,1.6c1.6,1.4,2.4,1.1,3.9,0.5c4.4-1.8,8.7-3.4,13.1-5.1c0.2,0.4,0.4,0.7,0.5,1.1
			C199.5,336.6,195.5,339,191.4,341.3z M538.5,231.8c1.2-5.2,2.3-10.1,3.3-15c0.1-0.7-0.3-1.6-0.7-2.2c-4-5.9-16.8-6.1-20.5,2.4
			c-1.1,2.4-2.7,4.1-5.5,4.5c-1.5,0.2-2.9,0.9-4.4,1.4c-3.4,1.2-4.7,3.4-3.6,6.8c1.4,4.1,1.4,7.7-1.3,11.3c-1.9,2.6-1.7,5.2,1.1,7.4
			c2.1,1.7,4.6,3.3,5.9,5.5c2,3.3,4.8,4,8.1,4.4c0.7,0.1,1.5,0.3,2.2,0.2c1.1-0.2,2.2-0.6,3.1-1.2c2.7-1.8,5.1-4.1,8-5.4
			c3.3-1.4,6.9-1.8,11.2-2.8c-4.1-2.5-7.7-4.7-11.3-6.9c0.1-0.2,0.2-0.5,0.3-0.7c2.6,0.8,5.1,1.5,7.7,2.3c0.2-0.3,0.4-0.6,0.5-0.9
			c-5.5-3.9-11.1-7.8-16.6-11.7c0.1-0.2,0.2-0.3,0.2-0.5c3.7,1.6,7.4,3.2,11,4.8c0.1-0.2,0.2-0.4,0.3-0.6c-0.8-1.3-1.6-2.5-2.8-4.5
			C536.8,231.2,537.8,231.5,538.5,231.8z M224.7,280c0.6-2.8,1-4.7,1.5-6.7c3.9-16,7.9-32,11.8-48c1.8-7.3,0.8-10-5.3-14.1
			c-1.2-0.8-2.2-1.8-3.4-2.5c-2.1-1.3-4.3-2.4-6.4-3.6c-2.4,10.2-4.7,19.6-6.8,29.1c-2.1,9.6-3.9,19.2-5.7,28.8
			c-0.3,1.6,0.1,4.1,1.2,5.2C215.5,272.1,219.7,275.6,224.7,280z M498,280c0,1.6-0.6,3.8,0.1,5c1.3,2.2,9.4,3.1,11.6,1.5
			c4.4-3.2,7.9-9.1,5.2-15.3c-1.1-2.6-2.3-5.1-3.1-7.8c-1-3.4-3.2-5.8-5.9-8c-1.6-1.3-3.3-2.7-4.1-4.4c-2.3-5.1-5.9-9.2-10-12.7
			c-6.6-5.4-9.6-7.1-18.1-2.1c-2.9,1.7-5.4,4.1-6.9,7.6c8.6,4.7,14.6,11.2,17,21.3c1.8-2.8,3.2-4.8,4.5-6.9c0.3,0.2,0.7,0.4,1,0.5
			c-1,2.7-2.1,5.3-2.9,8.1c-0.2,0.7,0.5,1.6,0.7,2.4c0.7-0.3,1.6-0.4,2.2-0.9c0.9-0.8,1.7-1.9,2.5-2.8c-1,7.3-1,7.3,0.6,8.5
			c3-3.3,5.3-7.5,9.9-9.1c-1.9,3.5-4.2,6.5-6.2,9.8c-0.8,1.3-1,3.1-0.9,4.6C495.2,279.7,497.5,279.9,498,280z M302,266.4
			c0.4-0.4,0.7-0.7,1.1-1.1c-25.8-38.2-58.1-69.9-97-95.4c-0.1,4.7-3.6,0.1-4.9,2.7c4,2.4,8.2,4.9,12.7,7.7c-6-1.6-11.5-3.1-17-4.5
			c-0.1,0.2-0.3,0.5-0.4,0.7c3.6,4.6,10.1,5.4,14.4,10.1c-2.2-0.5-3.9-0.9-5.6-1.3c-0.1,0.3-0.2,0.7-0.3,1c0.9,0.5,1.8,1,2.7,1.5
			c5.3,3.1,10.9,5.9,15.9,9.4c8.9,6.3,17.6,12.9,26.1,19.8c8.1,6.6,15.8,13.5,23.5,20.6c5.5,5,10.5,10.5,15.7,15.8
			C293.2,257.7,297.6,262,302,266.4z M195.3,278.1c-0.1-0.3-0.1-0.7-0.3-1.1c-6.2-11.6-19.1-16-29.7-14.3c-9,1.5-17.7,4.5-26.3,7.4
			c-4.5,1.5-8.6,4.3-12.8,6.5c0,0.4,0,0.8,0,1.2c2.6,1.4,5.2,4,7.7,3.9c2.6-0.1,3,0.6,3.3,2.4c3.8-0.2,7.1-4.9,10.4-0.9
			c-0.4,2.6-0.8,4.7-1.2,7.2c2.9,0,5.9,0.8,8-0.2c3.9-1.8,7.8-2.9,12-3.8c2.2-0.5,4.2-1.6,6.4-2.2
			C180.2,282.1,187.6,280.1,195.3,278.1z M446.7,445.5c-1.3,11.9,0.7,22.4,7.5,31.3c4.9,6.4,10.7,12,16.3,17.8
			c1.7,1.8,3.9,3.3,6.4,5.3c4.8-13.3,6.9-26.1,0.4-39c-3.9-7.7-16-17.7-21.1-17.4c1.6,2.9,3.1,5.6,4.8,8.8c-1.5-0.3-2.3-0.5-3.8-0.9
			c2.8,7.1,5.3,13.8,7.9,20.5c-0.4,0.2-0.7,0.3-1.1,0.5c-4.4-9.1-8.9-18.2-13.3-27.3c-0.3,0.1-0.6,0.2-1,0.3c-0.3,1.1-0.6,2.2-1,3.6
			C448.1,447.8,447.6,446.9,446.7,445.5z M145,228.6c0,1.2,0,1.9,0,2.7c-0.1,5.4-0.1,5.5,5.1,6.8c9.7,2.6,16.8,8.2,20.2,17.9
			c0.4,1,1.8,2.1,2.9,2.4c9.7,2.6,18.4,7,23.8,15.7c2.5,4,5.6,4.8,9.5,5.2c1.7,0.2,3.4,0.4,5.1,0.6c0.1-0.2,0.1-0.5,0.2-0.7
			c-0.8-0.6-1.6-1.2-2.5-2c0.5-0.6,1-1.2,1.4-1.7c-4.2-3.4-8.2-6.7-12.3-10.1c2.2,0.5,4.3,1,6.4,1.4c0.2-0.3,0.3-0.7,0.5-1
			c-6.7-6.3-13.4-12.6-20.1-18.9c-1.6-1.5-3.2-2.9-4.9-4.2c-8.4-6.3-16.7-12.8-22.4-21.9c-1.3-2.2-7.2-3.9-9.7-2.9
			c-0.7,0.3-1.3,1.4-1.5,2.2c-0.1,0.4,0.9,1.1,1.6,1.4c1,0.5,2.2,0.7,3.2,1.1C150.8,226.5,148.9,228.5,145,228.6z M474.8,328.7
			c2,5.3,3.7,10.4,5.7,15.4c0.3,0.7,1.5,1.5,2.3,1.5c7.3,0.4,13.2-2.8,17.8-8c6.3-7.3,8.7-15.8,5.8-25.4c-0.6-2.1-0.1-3.6,1.8-4.7
			c2.1-1.1,4.2-2.2,6.3-3.5c3.2-1.9,3.7-5.6,1.2-8.2c-3.9-4-9-5.4-14.3-6.3c-0.6-0.1-1.9,1.4-2,2.3c-0.7,6.2-2.5,12-5.5,17.5
			c-0.7,1.3-0.8,2.9-1.2,4.7c-1,0.7-2.4,1.8-4.2,3.2c4.7,0.9,8.6,1.6,12.5,2.3c0,0.5-0.1,1-0.1,1.5c-4.5,0.2-9.1,0.4-14.1,0.7
			c0.8,1.2,1.2,1.8,1.8,2.8c-2,0.6-3.6,1.1-5.9,1.8c2.8,1.6,5,2.9,7.2,4.1c-0.1,0.3-0.2,0.6-0.4,0.9
			C484.6,330.6,479.7,329.6,474.8,328.7z M109.6,251.5c4.2,2.7,5.6,7.9,11.4,7.1c-0.3,1.2-0.6,2.1-0.9,3.3c4.6-1.8,8.7-3.4,12.8-5
			c-1.4,4.1-8.6,4.4-5.4,10.7c3.7-1.5,7-2.9,10.6-4.4c-0.2,1.2-0.3,2-0.4,3c0.6-0.1,1-0.2,1.2-0.2c8.5-2.5,16.9-5.1,25.4-7.3
			c3.4-0.9,4.2-1.7,2.7-5c-2-4.3-5.1-7.5-9.2-9.7c-7-3.8-14.3-3.6-21.8-2.4C126.8,243.1,118.4,246.5,109.6,251.5z M420.9,272.1
			c0.4,0,0.7,0.1,1.1,0.1c0.1,3,0.7,6,0.2,8.9c-0.4,2.7-1.9,5.3-3.1,7.8c-1.8,3.9-3.2,7.9-2.4,12.3c0.6,3.4,1.7,6.7,2.5,10.1
			c0.4,2,0.8,3.9,3.4,4.1c2.8,0.2,5.5-0.1,6.4-3.2c0.8-3,2-6.3,1.3-9.1c-1.4-6.4,1-10.7,5.9-14.2c2.7-1.9,4.4-4.5,4.1-8
			c-0.2-1.7-0.5-3.4-0.7-5.1c-0.5-4.2,1.7-7,4.9-8.9c-2.8-7.1-13.3-12.6-22.2-9.7c-4.5,1.5-6.1,5.3-3.9,9.2c2.6-0.3,5.2-0.6,7.7-0.9
			c0.1,0.3,0.1,0.7,0.2,1c-1.7,0.7-3.5,1.4-6.4,2.6c1.5,0.4,2.4,0.6,3.2,0.9C421.9,271.1,421.4,271.6,420.9,272.1z M599.9,274
			c-0.1,0.2-0.3,0.4-0.4,0.6c-1.1-0.5-2.3-1-3.3-1.6c-3.1-1.7-6.2-3.6-9.4-5.2c-2.7-1.4-4.8-0.5-4.9,1.9c-0.3,5.7,1.2,11,5,15.4
			c2.9,3.3,8.2,3.4,12.1,1.3c3.7-2,7.8-3.5,11.7-5.1c2.1-0.9,4.5-1.2,6.3-2.4c6-3.8,9.7-9.4,11.3-16.4c1.1-4.9-0.9-9.8-5.1-12.4
			c-3.8-2.4-6.6-1.9-9.4,1.6c-1.6,2.1-4.4,3.6-3.9,6.8c-2.4,1.3-4.8,2.5-7.8,4.2c4.4,1.1,7.7,2,11.1,2.8c-0.1,0.4-0.1,0.8-0.2,1.2
			c-1.4-0.1-2.8-0.4-4.2-0.4c-2.6,0-5.3-0.4-7.6,0.5c-1.4,0.6-2.3,1.3-4,0.7c-1.1-0.4-2.5-0.1-4.5-0.1
			C595.5,270,597.7,272,599.9,274z M553.2,252.2c0.3,0,0.7-0.1,1-0.1c0.7,0.7,1.5,1.3,2.1,2c0.6,0.7,0.8,1.8,1.4,2.1
			c4.3,2.3,8.6,4.6,12.9,6.6c0.5,0.3,2.2-0.5,2.4-1.1c2-5.8,2.6-9.3-1.9-15.1c-1.9-2.4-4.5-5.4-4.4-8.1c0.2-4.9-1.5-9-3.9-12.7
			c-2.7-4.3-3.4-8.3,0-12.5c0.4-0.5,0.5-1.2,0.7-1.8c-10.6-2.8-22.5,5.9-20.7,17.5c0.9,6.2,1.8,12.4,7.3,17c0.9-3.2,1.9-6.3,2.8-9.5
			c0.3,0.1,0.7,0.2,1,0.3C553.8,242,553.5,247.1,553.2,252.2z M502.4,178.8c-2.4,2-4.5,3.7-7,5.8c6.8,0,12.6,0,18.5,0
			c-2.2,0.8-4.6,0.7-6.6,1.5c-3.7,1.4-9.5-1.1-10.8,5.5c0.6,0.4,1.1,0.9,1.8,1.2c5.5,1.9,11,3.9,16.5,5.5c5.4,1.5,13.7-3,15.7-8.1
			c1.6-4.1-0.3-10.1-4.8-13.1c-3.4-2.3-5.2-5.4-6.1-9.2c-1.3-5.1-2.6-5.7-7.6-4.1c-8.2,2.5-13.7,8.9-20,14.1c-1,0.8-1.8,1.9-3.2,3.5
			C493.8,180.3,498,179.5,502.4,178.8z M415.6,312.4c0.2-0.8,0.3-1.1,0.3-1.4c-0.1-0.6-0.2-1.3-0.4-1.9c-3.8-8.1-2.8-16,1.2-23.8
			c0.9-1.8,1.6-3.8,2-5.7c0.8-3.5-1.1-6.3-2.7-9.2c-2.5-4.8-3.5-9.7-1.9-15c0.4-1.1,0.1-2.5,0.1-3.8c-4.6,0.6-7.6,3.2-9.6,6.9
			c-3.1,5.9-6.4,11.9-8.9,18.1c-1,2.6-0.8,5.9-0.3,8.8c0.6,3.1,2.7,3.4,5.2,1.3c0.7-0.6,1.6-1,2.4-1.4c0.1,0.2,0.3,0.3,0.4,0.5
			c-1.2,2.3-2.4,4.5-3.9,7.2c1.7-0.1,2.7-0.1,3.9-0.2c-3.1,6.2-3.2,9.7,0.5,14.2C406.7,310.3,410.7,312.4,415.6,312.4z M604.3,191.3
			c4.9,0.5,4.9,0.6,7.1-2.4c4.4-6.1,10.2-9.8,17.4-11.6c7.3-1.8,9.4-4.7,9.2-12.2c-0.1-2.3-0.9-3.3-3.2-4.1
			c-2.1-0.7-4.7-2.4-5.6-4.3c-1.3-2.9-3-4.5-6.1-5c-1.9-0.3-3.8-0.9-5.6-1.4c-4.3-1.3-4.5-1.4-5.7,3.2c-2.6,10.2-7.1,19.6-13.6,27.9
			c-0.9,1.2-1.6,2.6-2.4,3.9c0.2,0.2,0.4,0.3,0.6,0.5c2.6-1.4,5.3-2.8,7.9-4.2c0.1,0.2,0.3,0.4,0.4,0.6c-0.6,0.9-1.3,1.8-2.4,3.4
			c8.7-0.3,12.3-8.1,19.3-10C616,180.7,610.4,185.8,604.3,191.3z M113.6,162.5c2.4,0.6,4.6,1.2,6.9,1.6c6.9,1,13.8,1.8,20.8,2.8
			c2.7,0.4,4.7-0.3,6.1-3.1c2.6-5.6,3.8-11.2,2.2-17.3c-0.6-2.3-1.6-3.7-3.9-4.2c-5.3-1.4-10.6-3-16-4.1c-4-0.9-8.1-1.1-12.5-1.7
			C119.7,147.8,121,150.7,113.6,162.5z M476.4,184.3c-5.2-7-11.3-12.1-19.7-13.9c-7.1-1.5-11.1,0.6-13.5,7.4c-0.6,1.7-1.3,3.5-2.2,5
			c-3.7,5.9-2.2,11.4,1.1,16.8c2.3,3.7,6,5.2,10.1,3.5c5-2,9.8-4.6,14.6-7c1.3-0.7,2.5-1.6,3.8-2.5c-0.1-0.2-0.2-0.5-0.4-0.7
			c-2.5,0.2-5,0.5-7.4,0.7c0-0.2-0.1-0.4-0.1-0.5c2.4-0.9,4.8-1.8,8-3c-3.1-1-5.3-1.8-7.5-2.5c0.1-0.3,0.2-0.6,0.3-0.9
			c1.2-0.4,2.5-0.7,4.6-1.4c-2.5-1.5-4.2-2.4-5.9-3.4c0.1-0.2,0.2-0.4,0.3-0.6C467.1,182.3,471.8,183.3,476.4,184.3z M487.3,177.4
			c0.3,0.2,0.6,0.5,0.8,0.7c1.6-1.8,3.2-3.5,4.7-5.4c3.5-4.2,7.1-8.2,8.3-13.8c0.9-4.2-0.4-6.7-4.2-8.2c-3.1-1.2-6.1-2.7-8.9-4.4
			c-2.2-1.3-4.4-3.2-6.8-1.2c-2.8,2.3-6.7,4-6.5,8.7c0.1,2.6,0,5.2,0,7.8c-0.3,0-0.5,0-0.8,0c-0.5-2.9-0.9-5.8-1.5-9.3
			c-1,1.2-1.6,1.9-1.7,2c-1.9,0.2-3.8-0.1-4.3,0.6c-1.1,1.4-2.1,3.5-1.9,5.2c0.7,5.4,3.9,9.8,7.3,13.9c2,2.3,4.3,4.5,6.4,6.7
			c0.3-0.2,0.5-0.4,0.8-0.6c-0.2-1-0.5-2.1-0.7-3.2c1-0.3,1.8-0.6,2.5-0.8c-0.5-4.6-0.9-9-1.3-13.3c0.3,0,0.6-0.1,0.9-0.1
			c1,3.5,2,6.9,3,10.8c2.4-1.5,4.3-2.8,6.2-4.1C489.1,171.9,488.2,174.6,487.3,177.4z M253.9,351.7c-0.1-0.2-0.2-0.4-0.3-0.6
			c1.3-0.8,2.6-1.5,3.8-2.4c0.5-0.4,0.8-1.6,0.6-2.2c-0.2-0.6-1.2-1.4-1.8-1.4c-3,0.1-6.2,0.1-9.1,0.8c-13.2,3.2-26.3,6.7-40,7.5
			c-2.4,0.1-4.7,0.9-6.5,1.3c0,5.3,0,9.9,0,15c3.8-0.8,7.9-1.8,12.1-2.6c11.1-2.2,22.2-4.2,33.3-6.5c2.1-0.4,4.4-1.3,6.1-2.6
			c1.9-1.5,3.4-3.6,5-5.6c0.3-0.4,0.4-1,0.7-2.1C256.2,350.9,255.1,351.3,253.9,351.7z M600.5,140.8c0.4-1,0.6-1.2,0.6-1.4
			c-0.2-1.9-0.4-3.8-0.7-5.8c-0.5-3.6,0.2-4.3,3.8-4.4c3.9-0.1,7.8-0.4,11.7-0.8c0.7-0.1,2-1.1,2-1.8c0.1-4.2-4.7-9-9.1-9.1
			c-2.4,0-4.9,0.3-7.7,0.5c0,1.9,0,3.7,0,5.6c-0.3,0.1-0.6,0.1-0.9,0.2c-0.4-1.5-0.7-3-1.2-4.4c-0.4-1.1-0.8-2.7-1.6-3
			c-5.7-2-12-3.6-17.4-0.7c-4.8,2.6-9.6,3-14.6,3.7c-5.2,0.8-9.1,5.8-7.8,10.8c0.5,1.8,1.9,4.2,3.4,4.7c1.4,0.5,3.7-1,5.3-2
			c1.4-0.9,2.5-2.4,3.8-3.6c2.3-2.1,4.8-3.5,8.2-2.3c2.5,0.8,5.2,1.2,7.9,1.4c3.7,0.3,6.6,1.9,8.7,4.9
			C596.7,135.8,598.5,138,600.5,140.8z M576.2,315.6c-0.2-0.5-0.3-0.9-0.5-1.4c-13.2,0.6-26.3-0.1-39.4-3.1c1.8,1.4,3.5,2.8,5.3,4.3
			c-0.2,0.3-0.4,0.5-0.5,0.8c-6-1-11.3-5.8-18.1-3.7c2.1,2,4.2,4.1,6.3,6.2c-0.3,0.3-0.5,0.6-0.8,1c-4.8-2.5-9.7-5-15.2-7.9
			c0,2.9,0.2,5,0,7.1c-0.2,2.4,0.8,3.7,2.9,4.8c7,3.7,14.7,5,22.4,5.1c9,0.1,17.8-1.4,26-5.3C568.8,321.4,572.4,318.2,576.2,315.6z
			 M492.3,415.1c0,0.3,0.1,0.6,0.1,1c5,0.6,10,1.2,15,1.8c0,0.2,0,0.4-0.1,0.6c-2.3,0.1-4.5,0.3-7.5,0.5c5.8,3.6,10.8,6.7,15.9,9.8
			c0.7,0.4,1.7,0.5,2.5,0.3c5.7-1.7,11.3-3.5,17-5.4c0.5-0.2,1.4-0.8,1.3-1.1c-0.1-0.6-0.6-1.4-1.1-1.7c-8-4.7-15.8-10-24.1-13.9
			c-9.9-4.7-20.4-5.1-30.3,0.5c-3.1,1.7-5.7,4.2-8.5,6.3c0.2,0.3,0.4,0.7,0.6,1c6.9-1.9,13.3-6.2,20.9-5.6c-3.3,1.3-6.6,2.6-9.8,3.9
			c0.1,0.3,0.2,0.7,0.3,1c3.3-0.2,6.5-0.5,9.8-0.7c0,0.2,0,0.4,0.1,0.6C493.6,414.3,493,414.7,492.3,415.1z M204.9,394.7
			c3.4-1.2,6.9-2.5,10.5-3.6c5.9-1.9,12-3.6,17.9-5.6c2.2-0.7,4.9-1.5,4.2-5.1c-2.6,0.8-4.9,1.5-6.8,2c1.6-3.1,3.2-6.2,5-9.8
			c-2.9,0.3-5.2,0.5-7.5,0.7c4.9-2.3,10.7-2.7,13.5-8.5c-0.4-0.1-0.9-0.4-1.3-0.3c-12,2.9-24.1,5.8-36,8.9c-5.3,1.4-5.2,1.6-3.1,6.4
			c0.1,0.2,0,0.4,0.1,0.6C202.4,385,203.6,389.5,204.9,394.7z M487.3,197.1c-0.4,1.5-0.7,2.1-0.7,2.6c0.2,6.8,0.4,13.7,0.8,20.5
			c0.1,1.9,0.7,3.8,1.5,5.6c2.1,5,5.7,6.1,10,2.8c2.6-2.1,4.5-5.1,7-7.4c1.8-1.7,2-3.1,0.7-4.8c5.6-1.6-0.5-4.2,0.8-6.5
			c1.8,2.4,3.5,4.6,5.4,7c1.2-1.1,2.6-1.9,2.9-2.9c0.5-1.6,1-4.2,0.1-5.2c-5.7-6.7-12.5-12.1-21.1-14.5c-0.7-0.2-1.4-0.2-2.9-0.3
			c1.5,2,2.5,3.2,3.5,4.5c-0.2,0.1-0.3,0.3-0.5,0.4c-1.2-0.4-2.5-0.8-4.5-1.5c1.8,4.2,3.3,7.6,4.8,11.1c-0.3,0.2-0.6,0.3-0.9,0.5
			C492,205.2,489.8,201.5,487.3,197.1z M576.5,264.7c1.4-0.6,1.9-0.8,2.4-1.1c3-1.3,6.3-4.1,8.9-3.6c4.7,1,5.5-2.7,8-4.3
			c0.8-0.5,1.5-1.1,2.9-2.2c-0.9,3.4-4.3,5-2.3,8.5c6.9-3,13-6.9,16.3-13.7c1.6-3.3,2.6-7.2,2.9-10.8c0.3-3.3-1.8-4-5-3
			c-2.8,0.9-5.7,1.4-8.5,1.6c-3.4,0.2-6,1.5-7.9,4.3c-2.4,3.5-5.2,6.1-10.2,5.5c-4.9-0.6-7.5,3.1-6.6,8.1c0.3,1.4-0.1,3-0.2,4.5
			C577.1,260.4,576.8,262.3,576.5,264.7z M394.6,382.4c-0.9-4.4-4-8-10.4-10.6c-6.2-2.5-12.6-3.3-18.4,1.5
			c-4.2,3.4-8.3,6.9-12.3,10.5c-0.6,0.5-0.7,2-0.5,2.9c1.9,6.6,6.6,10,13.2,11.5c7.3,1.6,11.9-1.5,13.2-8.3
			c-1.3,0.1-2.5,0.2-3.8,0.4c0-0.2-0.1-0.4-0.1-0.6c1.4-1,2.8-2.1,4.9-3.7c-3.9-0.8-6.9-1.5-9.8-2.1c5.2-2.5,10.9,0.3,16.4-3
			c-2-1.5-3.6-2.6-5.3-3.8c0.3-0.4,0.5-0.8,0.8-1.2C386.5,378,390.5,380.2,394.6,382.4z M476.2,195.9c-0.4-0.2-0.7-0.4-1.1-0.7
			c-6.5,2.4-12.1,6.3-16.4,11.8c-3.9,5-4,11,1.1,13.1c3.8,1.6,6.5,4.4,9,7.6c2.2,2.7,7.4,3.6,9.4,1.3c2.6-3.1,5.6-6.8,6.3-10.6
			c0.9-5.1-0.3-10.6-0.7-15.9c-0.1-1.3-0.6-2.5-1-3.8c-0.2,0-0.5,0-0.7,0c-0.7,2.8-1.4,5.6-2.1,8.5c-0.3,0-0.6,0-0.9,0
			c-0.3-2.1-0.6-4.2-1.1-7.3c-3.5,4.2-6.5,7.8-9.4,11.3c-0.2-0.2-0.5-0.3-0.7-0.5c1.5-2.4,3.1-4.8,4.5-7.3
			C473.7,200.9,474.9,198.4,476.2,195.9z M475.5,269.9c0.8,1.2,1.3,2.1,1.9,3c3.8,5.5,5.9,11.2,2.5,17.9c-0.8,1.6-0.9,3.9-0.5,5.7
			c1.5,5.8-0.1,11-3.7,15.2c-3.1,3.6-3.4,7-1.4,11.4c1.4-0.5,3-0.9,4.4-1.6c5.3-2.5,8.2-7.2,11.3-11.8c6.9-10.2,7.3-22.2,0.1-32
			C486.7,273.3,483.1,268.4,475.5,269.9z M113.1,242.8c2.8-0.3,5.2-0.2,7.4-0.8c5.8-1.5,11.5-3.5,17.3-5c4.7-1.1,6.3-4.3,4.1-8.6
			c-3.6-6.8-15.4-12.5-23.1-11.2c-3,0.5-6,0.8-8.9,1.4c-4.2,0.9-8.4,1.9-12.7,2.9c0,0.2,0.1,0.4,0.1,0.5c6.5,1.7,13.1,3.3,20.2,5.2
			c-1.3,0.8-2.4,1.2-3.3,1.9c-1,0.8-3.4,0.7-2.3,3.1c0.9,2,1.6,4.2,4.7,3.1c1.4-0.5,3-0.7,4.8-1.1
			C119.6,238.1,113.2,236.8,113.1,242.8z M604,164.8c0.9-2,1.6-3.3,2.1-4.7c1.2-3.9,2.3-7.9,3.5-11.8c0.7-2.2,2-4.4,4.6-2.9
			c2.6,1.4,4.4,0.9,6.5-0.7c1-0.8,2.1-1.3,3.8-2.3c-0.5,2.3-0.9,4-1.5,6.6c2.3-0.7,4.1-1.2,5.3-1.5c1.6,3,2.6,6.3,4.8,8.6
			c2.2,2.4,5.6,3.7,9,5.9c0.1-0.3,0.5-0.8,0.8-1.4c3.3-6.2,2-16.8-7.9-19.8c-4.3-1.3-7.1-3.7-10.3-6.3c-1.9-1.6-4.7-2.7-7.2-2.9
			c-3.3-0.2-6.6,0.8-9.9,1.1c-3.1,0.3-3.9,1.3-3.4,4.5c0.3,1.9,0.7,3.9,0.6,5.8C604.6,150,604.3,157,604,164.8z M420.5,253.4
			c4.6,0,8.9,0.1,13.1,0c1.7,0,3.5-0.2,5.1-0.8c11.1-3.7,27.2,0.1,32.7,12.3c0.4,0.9,2.3,1.7,3.3,1.6c5.8-0.9,5.9-1.3,3.2-6.7
			c-0.6-1.2-1.3-2.3-1.9-3.4c-3.3-5.3-8.9-7.8-13.6-11.5c-5.2-4.2-10.9-5.9-17.5-5.3c-8.2,0.8-15.6,3.5-21.5,9.6
			C422.3,250.5,421.5,252.1,420.5,253.4z M550.8,126.3c-0.4,0.1-0.8,0.1-1.2,0.2c-2.4,3.8-5.2,7.5-7.1,11.6
			c-1.2,2.5-1.9,5.9-1.3,8.5c1.5,5.8,1.7,11.5,1.8,17.4c0.1,4.6,1.6,8.9,6,11.2c4.5,2.3,9.3,4.2,14.1,5.9c1.8,0.7,3.8,0.5,5.7,0.7
			c0.1-0.3,0.2-0.6,0.3-0.9c-3.8-2.3-7.5-4.7-11.4-7.1c1-0.8,1.6-1.3,2.2-1.8c-3.4-4.2-6.6-8.2-9.9-12.1c0.2-0.2,0.4-0.4,0.6-0.6
			c1,0.4,2,0.7,3.4,1.2c-0.9-2.4-1.6-4.3-2.5-6.6c1.4,0.4,2.1,0.6,2.1,0.6c1.2-5.6,2.3-10.9,3.4-16.2c0.1-0.4,0-0.9-0.2-1.3
			C554.9,133.4,552.8,129.9,550.8,126.3z M463.5,392.9c-6.6-15.8-25-25.8-36.1-22.7c3.6,2.5,4.4,6.8,9.2,8.6
			c3.5,1.3,7.1,2.7,10.7,4.2c1,0.4,2.2,0.6,3.2,0.9c0,0.3-0.1,0.6-0.1,0.9c-5-0.3-9.9-0.6-14.9-0.9c-0.2,0.3-0.3,0.6-0.5,0.9
			c1.3,1.2,2.6,2.4,3.8,3.5c-0.1,0.3-0.2,0.7-0.2,1c-5-0.8-10.1-1.7-15.3-2.6c2.9,8.3,8.5,12.3,15.8,11.2c3.8-0.6,7.6-1.4,11.4-2.2
			C454.7,394.9,459,393.9,463.5,392.9z M622.3,231.8c-0.1-0.2-0.3-0.4-0.4-0.6c1.3-1.1,2.6-2.4,4.1-3.1c2.5-1.2,2.7-3.2,2.4-5.5
			c-0.7-7-5.6-12-12.5-12.9c-4.6-0.6-9.1,1.8-10.2,5.3c4.5,4.2,5.4,10.1,4.9,15.8c0.3,0.1,0.5,0.4,0.8,0.4c6.9,1,7.3,1.5,7.2,8.5
			c0,1.3-0.6,2.6-0.4,3.8c0.1,0.9,0.8,2.1,1.5,2.4c2.6,1.2,5.4,2.1,8.1,3.2c6.3-6.7,7.8-13.4-0.4-20.1
			C626,229.8,624.1,230.8,622.3,231.8z M396.2,367.1c0.4,0.1,0.8,0.2,1.2,0.3c1.1-3.2,2.1-6.4,3.3-9.6c0.4-1,1-2.2,1.9-2.8
			c2.6-1.7,3-3.7,1.4-6.3c-1.5-2.3-2.7-4.9-4-7.4c-0.4-0.8-0.8-1.9-1.5-2.4c-1.8-1.1-8.8,0-10.2,1.5c-3.4,3.7-6.8,7.4-9.8,11.3
			c-2.9,3.7-2.9,8.3-2.7,12.8c0,0.5,0.5,1.3,1,1.4c3.7,1.3,7.4,2.5,11.5,3.9c-0.2-4.8-0.5-9.3-0.7-13.8c0.4,0,0.7,0,1.1-0.1
			c0.9,3.9,1.8,7.8,2.7,11.8c0.3,0.1,0.6,0.2,0.9,0.2c0.7-2.4,1.5-4.8,2.2-7.1c0.2,0,0.5-0.1,0.7-0.1
			C395.5,362.9,395.8,365,396.2,367.1z M87.9,160.9c1.4,0.8,1.6,1.1,1.9,1.1c6,0,12,0.1,18,0c0.7,0,1.5-0.4,1.9-1
			c4.2-5.5,6.8-11.7,5.7-18.7c-0.4-2.7-0.8-5.9-4.1-6.8c-2.4-0.7-4.9-0.8-7.4-0.8c-6.1-0.1-12.2,0-18.3,0c-1,0-2,0.2-2.9,0.2
			c0,0.2,0,0.4,0,0.5c4.8,1.4,9.5,2.8,14.3,4.2c-0.1,0.3-0.1,0.6-0.2,0.9c-3,0.4-6.1,0.9-8.8,1.3c1.3,1.8,2.3,3.9,3.9,5.2
			c1.6,1.3,3.9,1.9,6,2.5c2,0.7,4.1,1,6.1,1.5C98.6,154.3,93.6,157.4,87.9,160.9z M323.2,370.6c-6.4,5.6-9,74.4-6.1,86.3
			C323.6,453.3,328.1,388.9,323.2,370.6z M61.6,164.4c5.6-0.8,10.5-1.7,15.5-2.1c2.3-0.2,2.9-1.4,3.4-3.2c1.3-4.8,1.5-9.7-0.1-14.4
			c-1-3-2.4-6.3-4.6-8.5c-1.1-1.1-4.4-0.4-6.7-0.1c-4.2,0.5-8.5,1.3-13.1,2C60,146.5,62.4,154.7,61.6,164.4z M390.9,449
			c0.9-0.7,1.1-0.8,1.2-0.9c5.8-7.4,8.1-16.1,9.2-25.3c0.3-2.6-0.3-5.1-3.3-6c-1.7-0.5-3.5-0.9-5.3-1.3c-5,3.7-0.9,8.9-2,13.2
			c-0.3,0-0.7,0.1-1,0.1c-0.9-4.4-1.8-8.8-2.9-14.1c-1.2,2.2-2,3.9-3.2,6.2c0-3.3,0-5.7,0-8.1c-4.3,0.5-5.1,1.3-5.1,5.4
			c0,1.1,0.3,2.4-0.1,3.2c-2.4,4.6-0.9,8.7,1.7,12.5C383.5,438.9,387.3,443.9,390.9,449z M305.1,480.2c0.8-0.5,1.5-0.7,1.8-1.1
			c2.7-3.8,5.2-7.8,5.1-12.7c-0.1-6.2-0.6-12.4-0.6-18.6c0-7.8,0.4-15.7,0.6-23.5c0.2-4.8,0.3-9.6,0.7-14.3c0.3-3.8,1-7.5,1.3-11.2
			c0.2-2.5,0-5,0-7.5c-0.3,0-0.7,0-1,0C303,420,302.8,449.8,305.1,480.2z M419,317.7c-0.1,1.1-0.2,1.4-0.1,1.7
			c0.1,0.4,0.3,0.8,0.5,1.2c2.8,6,8.1,8.8,14.1,9.8c4.8,0.8,9.7,0.7,14.6,0.8c5.6,0.1,10.9-1.3,15.9-3.9c5.2-2.7,6.6-5.2,5.9-10.7
			c-0.2-1.6-0.6-3.3-1.1-5.4C453.3,321.9,436.8,324,419,317.7z M512,520.7c-0.3,0.2-0.5,0.5-0.8,0.7c-0.7-0.5-1.3-1-2-1.5
			c-2.9-2.5-5.8-5-8.7-7.4c-0.5-0.4-1.5-0.3-2.2-0.4c-0.1,0.8-0.4,1.7-0.1,2.3c3.5,7.2,8.2,13.5,14.5,18.6c7.8,6.4,17.2,9.3,26.2,13
			c3.1,1.3,6.4,2.3,9.8,3.6c-5.1-5.9-9.9-11.4-14.9-17.2c-1,1.8-1.3,2.4-1.7,3c-10.1-9.3-20-18.5-29.9-27.7
			c-0.3,0.3-0.6,0.5-0.9,0.8C505,512.7,508.5,516.7,512,520.7z M114.4,205.9c0,0.5,0.1,0.9,0.1,1.4c-4.6,1.9-10.2,1.8-13.5,5.7
			c1.5,1.3,2.7,2.4,4,3.4c0.4,0.3,1,0.5,1.5,0.4c5.2-0.7,10.5-1.2,15.7-2.1c1.3-0.2,3.4-1.3,3.5-2.1c0.3-4,0.9-8.3-0.2-12.1
			c-1.1-3.7-4.2-6.9-8.7-6.7c-9,0.3-18,0.9-26.9,1.4c-0.5,0-1,0.6-1.5,0.9c0,0.4,0.1,0.7,0.1,1.1c5.4,0.6,10.8,1.2,16.3,1.7
			c0,0.3-0.1,0.6-0.1,0.9c-1.3,0.3-2.8,0.4-4,1c-0.9,0.4-1.9,1.4-2.1,2.3c-0.2,0.6,0.8,1.8,1.5,2.2c2.2,1.4,4.5,1.6,7.1,0.9
			C109.4,205.4,112,205.9,114.4,205.9z M366.1,401.7c-6.9-3.3-8.6-4.2-9.2,4.9c-0.6,8.9,1.2,17.4,3.4,25.9c0.7,2.8,1.5,5.6,2.4,8.9
			c10-9.8,14.2-18.5,12.5-25.2c-3.9-0.6-3.8-0.5-2.7-4.1c1-3.4,1.7-6.8,2.6-10.2c-0.4-0.1-0.8-0.2-1.2-0.3
			c-1.6,4.9-3.3,9.8-4.9,14.7c-0.3-0.1-0.6-0.1-0.9-0.2c0.5-4.1,1.1-8.2,1.7-13.2c-1.9,1.4-2.9,2.2-4.6,3.5
			C365.5,404.2,365.8,403,366.1,401.7z M572.4,186.3c-5,0.4-9.3,1.4-12.9,5c-1.4,1.4-2,2.5-0.8,4.4c1.1,1.8,2.5,1.5,4.2,1.3
			c3.3-0.3,6.6-0.5,9.9-0.4c1.3,0,2.6,1,4,1.2c2.7,0.5,5.4,1,8.1,1c4.5,0,10,3.3,10.9,9.1c0.3,2.4,3.3,4.1,6.5,3.9
			c2.8-0.2,3.6-2.3,3.1-4.4c-1-4-2.3-8-3.9-11.8c-1.3-3.1-4.3-4.7-7.4-4.5c-4.9,0.3-9.1-1.5-13.6-2.9
			C577.9,187.4,575.2,187,572.4,186.3z M179.7,406.3c6.4-3.1,11.9-5.7,17.4-8.5c1-0.5,1.8-1.7,2.1-2.8c2.4-6.9,0.6-13.1-3.4-19.4
			c-6.7,2.7-13.1,5.4-19.6,8c-1.2,0.5-2.5,1-1.5,2.8C178,392.3,180.2,398.5,179.7,406.3z M550.9,546.6c-4.4-12-9.6-23.4-19.3-32.1
			c-9.7-8.6-21.5-12.8-33.6-16.4c-0.2,0.3-0.3,0.6-0.5,0.9c5.6,3.1,11.2,6.3,16.8,9.4c-0.1,0.4-0.3,0.7-0.4,1.1
			c-2.6-0.8-5.1-1.6-8.3-2.7c1.1,1,1.6,1.6,2.3,2c9.1,6.2,18.2,12.1,25.2,21.1C538.1,536.2,544.9,541.1,550.9,546.6z M223.7,486
			c0.7-1.1,1.1-1.6,1.3-2.2c2.4-6.4,4.8-12.7,7-19.1c1-2.8,1.8-5.7,2.1-8.7c0.2-1.4-0.8-3.1-1.6-4.4c-0.2-0.3-1.9,0.3-2.9,0.4
			c-0.5,0-1.1-0.5-1.5-0.4c-1.4,0.3-3.1,0.4-4.2,1.2c-2.1,1.5-3.6,4.7-5.8,5.1c-2.9,0.6-3.5,2.5-4.8,4.1c-1.4,1.9-2.6,3.9-4,5.8
			c-1.2,1.7-0.9,2.9,0.8,4.3c3.4,2.9,6.6,6.1,9.8,9.3C221.1,482.8,222.1,484.2,223.7,486z M443.3,501.5c0.4-0.1,0.8-0.3,1.2-0.4
			c1.1-7.8,3.4-15.6,3.1-23.3c-0.3-7.7-3.2-15.3-4.9-23c-0.3,0-0.6,0-0.8,0c-0.7,3.4-1.4,6.8-2.1,10.2c-0.3,0-0.6-0.1-0.9-0.1
			c0.2-4.5,0.4-9,0.6-13.5c-0.3,0-0.7-0.1-1-0.1c-4.8,7.3-8,15.2-5.6,24.1c1.8,6.8,4.6,13.4,7.2,20.1
			C440.9,497.6,442.2,499.5,443.3,501.5z M421.9,398.8c1.4,4.2-1.3,5.6-3.1,6.5c3.6,3.8,7.7,7,10.4,11.2c2.9,4.5,10.6,8.6,18.3,8.1
			c-0.5-5-0.7-10.1-1.5-15c-1-5.7-3.9-9.7-10.6-8.9c-0.5,0.1-1-0.3-1.5-0.4C430.1,399.8,426.4,399.4,421.9,398.8z M351.8,348.1
			c2.5,5.4,4.6,10.6,7.4,15.3c3,5.1,9.4,6.1,13,2.5c-1-1.3-2.1-2.5-3.3-4c1.4-0.2,2.3-0.3,4.2-0.5c-3.3-4.4-6.3-8.3-9.2-12.2
			c0.2-0.2,0.5-0.5,0.7-0.7c2.1,1.6,4.1,3.2,6.4,5c0.4-0.8,0.7-1.6,1.1-2.5c2,1.5,3.2,0.8,4.3-1.2c0.8-1.5,2.1-2.8,3.2-4.1
			c1.5-1.7,1.4-2.9-0.6-4.2c-3.9-2.7-8.3-2.9-12.4-1.2C361.8,342.3,357.4,345.1,351.8,348.1z M267.3,332.1c4.4,0,8.6,0.5,12.7-0.1
			c5.9-0.9,11.8-2.6,17.6-4c6.9-1.7,13.8-3.6,20.7-5.2c2.8-0.6,3-2.4,2.8-4.7c-0.3-2.5-2.3-1.7-3.5-1.6c-5.7,0.7-11.3,1.5-16.9,2.4
			c-6.2,1-12.3,2-18.5,3.2c-6.3,1.2-12.7,2.5-19,3.8c-0.9,0.2-1.8,0.8-3.2,1.5C263,328.9,268,325.9,267.3,332.1z M153.7,214.8
			c-2.3-6.9-4.5-13.3-6.7-19.7c-0.2-0.6-1.2-1.3-1.8-1.4c-6.6-0.4-13.1-0.7-20.5-1.1c0.9,1.6,1.3,2.5,1.9,3.2
			c3.7,4.2,4.9,9.3,3.7,14.5c-0.8,3.6,0.9,3.6,3.3,3.8c4,0.2,8,0.5,12,0.7C148.2,214.9,150.8,214.8,153.7,214.8z M522.5,209.5
			c0.2,0.1,0.4,0.2,0.6,0.2c7.5-3.2,14.5-2.7,20.9,2.8c0.4,0.4,2,0.3,2.3-0.1c3.3-3.9,6.5-8,9.7-12c0.1-0.2,0.1-0.4,0.1-0.6
			c0.6-4.2-6.8-9.9-10.7-8.4c-3.7,1.4-7.4,2.6-11.2,3.9C529.2,197,522.4,202,522.5,209.5z M247.4,465.1c-1.7,0-3.8-0.2-3.9,0
			c-0.8,3.1-3.7,4-5.8,5.5c-0.7-1.6-1.5-3.2-2.4-5.3c-0.8,1-1.2,1.3-1.3,1.7c-1.7,6-3.3,12-4.9,18c-0.6,2.1,0.8,2.6,2.3,3.2
			c3.7,1.4,7.4,2.9,11.1,4.3c1.5,0.6,3,1.4,5,2.3c0.4-6,0.9-11.3,1-16.5c0.1-5,2.8-10,0.9-16C248.2,464,247.5,464.9,247.4,465.1z
			 M99,188c0.2,0.5,0.3,0.9,0.5,1.4c6-0.3,12-0.5,18-1.1c1-0.1,2.7-1.8,2.7-2.8c0.2-2.4,0.2-5.1-0.7-7.2
			c-4.5-9.9-18.8-15.1-29.8-10.8c1.1,0.6,2,1,3.1,1.6c-0.6,0.7-1.1,1.3-2,2.3c5.1,0.7,9.7,1.3,14.2,2c0,0.4-0.1,0.8-0.1,1.1
			c-2.5,0.4-5,0.6-7.5,1.1c-2.5,0.6-5,1.4-6.6,4.1c5.5,0.6,10.5,1.1,15.2,1.5C103.4,183.7,101.2,185.8,99,188z M273.6,479.6
			c4.1-2.2,8-5,12.2-6.4c4.8-1.6,8.9,2,13.8,4.4c-0.4-5.5-0.4-10.2-1.1-14.8c-0.2-1.5-2-3.3-3.5-3.9c-6.7-2.7-13.4-2.3-19.5,1.8
			c-1.3,0.9-2.6,3.1-2.6,4.7C272.8,470.1,273.3,474.8,273.6,479.6z M466.3,284.3c-0.9,6.6-5.9,9.7-11.1,12.5
			c-4.1,2.2-4.1,2.5-1.5,6.1c0.6,0.9,0.7,3.2,0.1,3.8c-2.7,2.6-1.7,5.5-1.4,9.6c5.2-3,9.9-5.3,14.3-8.2c2.5-1.7,4.6-3.6,7.5-1.1
			C477.7,299.6,472.9,285.8,466.3,284.3z M204.7,467.3c0.8-1,1.3-1.4,1.7-1.9c4.6-5.9,8.9-11.9,13.7-17.6c4.6-5.3,4.9-5.9,1-11.7
			c-0.8-1.2-1.8-2.2-2.8-3.2c-2.2-2.3-5.9-1.4-7.2,1.4c-1.5,3.2-3.3,6.4-5,9.6c-2.1,3.9-4.4,7.7-6.5,11.6c-0.2,0.4-0.2,1.1,0,1.5
			C201.2,460.3,202.8,463.5,204.7,467.3z M574.1,311.4c-0.3-0.4-0.4-0.7-0.5-0.8c-9.6-4.6-19.2-9.4-28.9-13.8
			c-6.2-2.9-12.9-3.9-19.7-3.3c-0.8,0.1-2,1.2-2.1,1.9c-0.1,2,0.2,4,0.4,6.3c2.4-0.6,4.7-1.2,7.1-1.8c0.2,0.4,0.4,0.8,0.5,1.2
			c-2.7,1.5-5.4,3-8.6,4.8c0.9,0,1.2,0,1.5,0c4.6,0.4,9.2-3.3,13.9-0.3c0.1,0,0.2-0.1,0.3-0.1c2.8-0.5,5.6-1,8.4-1.4
			c1.3-0.2,2.6,0,3.9,0c0.1,0.4,0.2,0.8,0.3,1.2c-2.1,1-4.2,2-6.4,3C548.5,310.8,559.7,312,574.1,311.4z M252.8,493.9
			c5.9-0.7,11.3-1.3,16.6-1.9c-0.5-7.2-0.9-14.1-1.4-21.1c-0.5-0.1-0.9-0.2-1.4-0.3c-1.2,1.8-2.4,3.5-3.2,4.6
			c-1.3-4.1-2.9-8.7-4.3-13.2c-3.8-0.1-5.4,1.4-5.2,5.1c0.1,2.4-1,4.9-1,7.3C252.7,481.1,252.8,487.7,252.8,493.9z M648.1,158.5
			c0.2,0.1,0.4,0.1,0.7,0.2c0.3-1.1,0.9-2.1,1-3.2c0.5-5.7,0.9-11.4,1.4-17.1c0.3-4.1-0.8-7.1-5.3-8c-0.8-0.2-1.5-0.9-2.2-1.4
			c-2.9-2.4-5.7-5-8.8-7.2c-1.9-1.5-4.9-3.6-6.6-1.4c-1.9,2.4-3.8,6.5-3,9c1.2,3.5,3.5,7.5,8.3,8.2c6.8,0.9,11.4,4.7,13.1,11.3
			C647.6,152,647.7,155.3,648.1,158.5z M147.3,332.8c3.3-1.6,6.1-3.1,9-4.3c2.2-0.9,2.6-2.4,2.1-4.4c-1.4-6.3-4-11.6-9.2-15.9
			c-6-4.9-9.3-5.4-15.7-1.1c-0.8,0.5-1.7,1-2.4,1.6c-0.7,0.6-1.2,1.3-1.8,2c0.7,0.5,1.3,1.1,2,1.4c6.6,2.8,11.8,6.9,14.2,14
			C146.1,328.1,146.6,330.3,147.3,332.8z M190.2,346c0.1,0.4,0.2,0.9,0.3,1.3c21.5,0.7,42.3-3.6,63.6-8.9c-0.9-0.7-1.1-1.1-1.4-1.1
			c-3.1-0.6-4.3-1.9-3.3-5.3c0.7-2.4-1.4-2-3-1.6c-15.2,4.2-30.5,8.3-45.7,12.5C197.2,343.9,193.7,345,190.2,346z M399.3,482.3
			c-0.2,0-0.3,0-0.5,0c-0.3,1.3-0.8,2.7-0.9,4c-0.3,7.9-0.6,15.9-0.7,23.8c-0.1,5.8,0.8,6.8,6.4,8.4c2.4,0.7,4.5-0.2,5.1-2.2
			c1.2-4.3,2.6-9,2.2-13.3c-0.7-6.3-2.9-12.5-4.8-18.7c-0.7-2.5-2.1-4.7-3.2-7.1c-0.3,0.1-0.6,0.2-0.9,0.3c0,3.2-0.1,6.4,0,9.7
			c0.1,3.1,0.4,6.1,0.6,9.2c-0.4,0-0.7,0.1-1.1,0.1C400.7,491.8,400,487,399.3,482.3z M112.9,285.6c0.8,0.8,1.1,1.3,1.5,1.6
			c6.4,4.5,10.8,10.2,11.9,18.1c0.3,1.8,1.4,2,2.8,1.2c2.9-1.8,5.9-3.6,8.8-5.5c0.6-0.4,1-1.3,1.1-2.1c0.9-8.1-7-17.1-15.1-19.1
			c-1.5-0.4-3.6,0.1-4.9,0.9C116.9,282,115.1,283.8,112.9,285.6z M418.5,427c-0.4,0.4-0.8,0.9-1.2,1.3c-4.1-3.5-8.2-7-12.3-10.6
			c-0.4,0.3-0.9,0.6-1.3,0.9c0.7,1.8,0.9,4.4,2.2,5.4c7.4,5.5,15.8,8.9,24.8,10.6c0.6,0.1,1.2-0.3,1.7-0.4
			c0.7-13.1-11.9-28.7-23.2-25.4c1.3,1.1,2.3,1.9,3.2,2.9c0.6,0.6,1.1,1.3,1.4,2c0.6,1.9,1.1,4,1.7,6.1c-0.4,0-1.3,0.1-2.9,0.3
			C414.8,422.8,416.6,424.9,418.5,427z M177.2,376.7c1.2-0.2,2-0.2,2.8-0.5c3.8-1.2,7.6-2.5,11.4-3.5c2.9-0.8,5-2.4,5.3-5.4
			c0.4-3.5,0.5-7.1,0.4-10.6c0-0.7-1.1-1.8-1.8-1.9c-4.1-0.4-8.2-0.7-12.3-0.8c-0.7,0-1.9,0.7-2.2,1.4
			C178.2,362.1,176.4,368.9,177.2,376.7z M69.7,193.8c3.8-0.9,7.3-1.6,10.7-2.6c0.8-0.2,1.5-1.6,1.7-2.5c1.8-6.8,0.8-13.3-2.9-19.3
			c-0.7-1.1-2.6-2-3.9-1.9c-2.9,0.1-5.7,0.8-8.6,1.2c-2.1,0.3-2.4,1.1-1.6,3.1c1.4,3.3,3,6.8,3.7,10.3
			C69.6,185.6,69.4,189.3,69.7,193.8z M94.8,255.1c1.8-1.1,3.6-1.9,5.2-3.1c1.2-0.9,2.8-2.3,2.9-3.5c0.8-7.8-0.3-15.4-5.4-21.7
			c-1.3-1.6-3.5-3.8-5-3.7c-3.3,0.3-6.4,2-9.4,3.1c2.9,4.7,6.2,8.9,8.1,13.6C93,244.5,93.6,249.8,94.8,255.1z M193.1,445
			c0.5-0.3,1.4-0.8,2.1-1.4c5.6-4.8,11.1-9.7,16.6-14.6c0.7-0.6,1.1-2,0.9-2.9c-0.8-3.9-2.6-7.4-6.4-9.2c-1-0.5-2.7-0.3-3.7,0.3
			c-3,1.9-5.9,4-8.7,6.1c-2.2,1.6-4.4,3.3-6.9,5.1c3.7,3,5.1-0.7,7.1-1.7c2.4-1.2,4.6-2.8,6.8-4.2c-3.3,4.1-6.5,8.1-10,12.5
			c1.5,0.5,2.2,0.7,2.9,0.9C193.5,438.9,193.3,441.7,193.1,445z M298.1,484.8c0.3-0.3,0.6-0.6,1-0.9c-1.5-1.8-2.7-4.1-4.6-5.2
			c-7.9-4.5-16.7-1.2-18.1,8.8c-0.9,6.2,2.4,13.8,11.3,13.3c1.8-0.1,3.1-0.2,2.4-2.9c-0.6-2.6-0.4-5.4-0.2-8.1c0.4-3.5,2.3-4.9,6-5
			C296.6,484.8,297.3,484.8,298.1,484.8z M441.1,508c0.3-0.2,0.5-0.4,0.8-0.6c-1.5-2.7-3.2-5.4-4.5-8.2c-2.4-5.1-4.6-10.2-7.1-15.3
			c-0.5-1.1-1.9-2.7-2.6-2.6c-4.3,0.7-8.1-0.4-11.8-2.1c-1-0.4-2-0.6-3.7-1.1C418.8,491.8,426.7,503.1,441.1,508z M427.7,505.1
			c-0.3,0.2-0.5,0.4-0.8,0.6c0.2,0.7,0.2,1.6,0.6,2.1c6.1,7.7,12.2,15.5,18.3,23.1c0.6,0.7,1.8,1.7,2.3,1.5c2.9-1.2,6.3-2.2,8.3-4.3
			c1.8-2,0-4.8-2-6.8C447,513.4,436.3,511.1,427.7,505.1z M372.9,459.9c0-5.7,0-11.3,0-17c0-0.6-0.5-1.3-0.8-1.9
			c-0.6,0.4-1.2,0.7-1.7,1.2c-0.6,0.6-1,1.4-1.5,2.1c-3.8,6.2-6.3,12.7-6.9,20c-0.4,4.9,0.5,9.4,3.8,12.8c1.2,1.3,3.9,1.3,5.9,1.9
			c0.4-1.6,1.1-3.2,1.1-4.8C373,469.5,373,464.7,372.9,459.9z M452.2,294.7c5.8-3.4,10.1-6.4,9.1-14.1c-1-7.3-9-13-15-10
			c-4,2-5.2,5.6-2,8.7c3.2,3,5.3,6.5,6.4,10.7C451.1,291.5,451.6,292.9,452.2,294.7z M184.4,424.8c5.2-3.3,10.1-6.5,15-9.7
			c4.5-3,5-8.8,1-12.5c-0.6-0.6-2.2-0.8-3-0.4c-5.9,3.3-11.8,6.7-17.8,10.2C181.3,416.7,182.8,420.6,184.4,424.8z M117.3,168
			c2.2,3.8,4.7,6.7,5.7,10.1c1,3.3,0.4,7,0.6,10.8c4.2,0.2,9,0.4,13.8,0.6c0.6-6.7-4.2-8.3-9.4-9.7c1.7-0.4,3.1-0.4,4.6-0.5
			c0.7,0,2-0.3,2-0.5c0.3-2.6,2.3-1.9,3.9-2.4c1-0.3,2.1-1.5,2.5-2.6c0.5-1.3-0.1-2.4-1.8-2.7c-4.2-0.7-8.4-1.8-12.6-2.5
			C123.7,168.3,120.6,168.2,117.3,168z M110.1,281.8c2-1.3,3.6-2.6,5.4-3.5c3.6-1.7,3.8-5,3.4-8c-0.6-5.5-3-10.3-7.1-14.2
			c-4.3-4-9.1-3.5-12.5,1.6C105.2,262.5,107.5,267.7,110.1,281.8z M527.9,172.8c0.5-0.2,1-0.4,1.6-0.5c0.5-14.3-3.8-28.6-0.5-42.9
			c-4.8,6-8.9,12.3-10.1,20c-0.5,3.1-1.6,6.1,1.2,9.2c2.3,2.5,3.5,6.1,5.2,9.2C526.2,169.3,527,171.1,527.9,172.8z M423.1,506.1
			c-0.3,0.1-0.6,0.2-0.9,0.4c0.2,7.5,1.4,14.8,4.7,21.8c1.8,3.8,4.2,6.9,8,8.6c3.4,1.6,8,0.4,9.9-2.1
			C437.5,525.2,430.3,515.7,423.1,506.1z M553.2,208.6c4.9-0.5,9.5-1.4,13.6,1.2c0.4,0.2,1.4-0.4,2.1-0.8c3.9-1.7,7.8-2.9,11.9-1.2
			c1.7,0.7,3.3,1.9,5.1,2.2c1.9,0.3,4-0.1,5.9-0.7c0.4-0.1,0.6-2.7,0-3.5c-1.4-2-3-4-6.1-3.6c-4,0.5-7.7-0.4-11.3-2.3
			C567.2,196.3,556.8,200,553.2,208.6z M234.2,408.1c-4.2,1.9-7.6,3.4-11,4.9c6.1-4.5,8.4-7.6,7.7-11.4c-7.3,4-14.4,7.8-21.5,11.8
			c-0.4,0.2-0.5,1.9-0.1,2.5c1.1,1.6,2.7,2.8,3.8,4.3c3.7,5.2,3.7,5.3,9.1,1.8C226.9,418.6,232.1,415.5,234.2,408.1z M376.8,478.1
			c5.4,0.9,7.4-0.6,8.7-6.4c2.2-10.4-0.1-20.2-4.9-29.5c-0.5-1-1.6-1.7-2.7-2.9c0.6,5.3,1.2,9.9,1.7,14.5c-0.3,0-0.5,0.1-0.8,0.1
			c-0.6-1.5-1.2-3-2.1-5.1C376.8,459.2,376.8,468.5,376.8,478.1z M647.8,180.2c-0.1-0.4-0.1-0.7-0.2-1.1c-4.2,0.6-8.5,0.9-12.7,1.7
			c-9.8,2-17.7,7-23.2,15.4c-1.2,1.8-2.4,3.9-0.9,6.8c3.4-3.4,6.7-6.7,9.9-9.9c0.2,0.2,0.5,0.4,0.7,0.6c-0.7,1.6-1.4,3.3-2.1,5
			C628.9,192.5,638.4,186.4,647.8,180.2z M418.7,451.4c-0.2-2.1-0.5-3.8-0.6-5.4c-0.8-7.9-4.5-13.9-11.8-17.5
			c-1.7-0.9-2.5-0.5-3,1.4c-0.6,2.4-1.7,4.7-2.4,7.1c-0.7,2.4-0.7,4.9,1.3,6.7C406.8,447.6,412.1,450.1,418.7,451.4z M264.7,428.9
			c-0.9,0.2-1.1,0.2-1.1,0.3c-2.7,9.3-5.5,18.7-8,28.1c-0.1,0.5,1.3,2.2,2,2.2c3.4,0.1,6.9-0.3,10.7-0.5c0.7-6.8,1.4-13.9,2.1-21
			c-0.3,0-0.6-0.1-0.9-0.1c-0.9,2.1-1.8,4.1-2.6,6.2c-0.3-0.1-0.5-0.2-0.8-0.3c0.6-2.4,1.9-4.9-1-6.7c-0.2-0.1,0.1-0.8,0.1-1.2
			C265.1,433.7,264.9,431.4,264.7,428.9z M520.2,360.2c0.4-0.4,0.7-0.8,1.1-1.1c-3.6-5.2-7.1-10.5-10.9-15.6
			c-3.3-4.4-3.5-4.2-7.6-0.3c-0.5,0.5-0.9,0.9-1.4,1.3c-6.6,5.7-6.6,5.7,1.1,10.2C508,357.9,513.9,359.7,520.2,360.2z M398.8,382.7
			c1.9-2.2,3.6-3.8,4.9-5.6c3.3-4.6,7.5-7.8,13-9c2.2-0.5,2.3-1.5,1.4-3.3c-1.9-3.6-8.4-7.5-12.4-7c-0.8,0.1-1.9,1-2.3,1.8
			c-2,4-3.7,8.1-5.6,12.1C396.2,375.2,396.3,378.5,398.8,382.7z M89,220.8c0.7-7.7-0.8-14.7-4.8-21c-0.9-1.3-2.5-3-3.8-3.1
			c-2.5-0.1-5,0.8-8.3,1.5c6.6,7.6,7.2,16.5,7.8,25.8C83.1,222.9,85.9,221.9,89,220.8z M384.5,338.1c-0.1-0.4-0.2-0.7-0.3-1.1
			c-2.4-1.4-5.2-2.4-7.2-4.3c-3.8-3.6-7.5-7.5-10.7-11.6c-1.5-2-3.2-1.8-4.9-1.4c-1,0.2-2.1,1.7-2.4,2.7c-1.5,6,0.5,11.4,3.4,16.9
			c6.5-3.2,12.7-3.6,18.9-0.1C382,339.6,383.4,338.5,384.5,338.1z M394.2,483.6c-0.2-0.2-0.5-0.4-0.7-0.6c-0.6,0.6-1.5,1-1.9,1.7
			c-1.4,2.1-2.7,4.2-3.9,6.3c-3.3,5.9-5,12-2.4,18.6c1.6,4.1,4.7,5.7,9.3,4.4c0-5.3-0.4-10.6,0.1-15.9
			C395.1,493.2,392.1,488.5,394.2,483.6z M649.4,183.6c-0.2-0.3-0.5-0.7-0.7-1c-8.3,5.3-16.6,10.7-25.2,16.2
			c1.2,0.7,1.8,1.1,2.6,1.5c-2.2,1.7-3.9,2.9-6.3,4.7c2.4-0.1,3.7-0.2,5.5-0.3c-0.9,1.3-1.4,2-2,2.8c3.6,1.6,5.7,1.2,8.9-1.8
			C639.2,199.2,644.7,191.8,649.4,183.6z M251.8,426.3c-2.4-2.6-4.1-2.6-6.3-0.3c-4.4,4.7-9.1,9.2-13.7,13.8
			c-3.3,3.3-3.2,3.2-0.1,6.5c1.8,1.9,3.3,4,5.1,6.3C242,443.5,246.9,435,251.8,426.3z M523.8,356.3c0.3-1.5,0.8-2.6,0.8-3.7
			c-0.3-5-0.5-10-1.4-14.9c-1.2-6.9-3.5-8.8-10.8-10c-1,2.3-2.2,4.6-3.1,7.1c-0.3,0.7-0.1,1.8,0.3,2.3
			C514.2,343.4,518.8,349.6,523.8,356.3z M589,213.8c1.2,2.1,2.6,4,3.3,6.1c0.5,1.6-0.5,3.8,0.2,5.2c1.4,2.6,3.3,5.2,5.6,7.1
			c1.2,1,3.7,0.4,5.7,0.6c2.1,0.2,3-0.9,3.2-2.8c1.1-7.9-2.3-13.7-9.8-16.3C594.5,212.8,591.6,211.3,589,213.8z M229.5,389.8
			c-1.9,0.6-3.8,1-5.5,1.7c-6.5,2.4-12.9,4.8-19.3,7.4c-0.9,0.4-2,2-1.8,2.8c0.6,2.3,1.8,4.4,2.7,6.6c0.7,1.7,1.6,1.9,3.3,1.1
			c4.5-2.3,9.2-4.4,13.8-6.6c0.7-0.3,1.3-0.9,1.9-1.4c-0.1-0.4-0.3-0.8-0.4-1.2c-3.4,1-6.8,2.1-10.2,3.1
			C219.6,399.6,227.2,398.5,229.5,389.8z M564.5,218.1c1.9,0,3.6-0.3,5.1,0.1c2.6,0.6,5.7,1.1,7.4,2.8c2.2,2.2,4.3,3.6,7.3,4.3
			c1.8,0.4,3.3,1.2,4.6-0.7c1.2-1.9,1.9-3.9,0.1-5.9c-1.9-2.2-3.7-4.5-5.8-6.6C577.9,207.1,566.2,209.9,564.5,218.1z M408.8,413.5
			c-4.2-7.7-8.3-15.3-12.4-22.9c-3.1,3.3-5,9.5-4.8,15.5c0.2,4.1,2.5,7.3,6.6,8.1C401.7,414.9,405.4,415.2,408.8,413.5z
			 M417.5,358.6c1.4,2,3.1,3.5,3.5,5.2c0.7,2.8,2.3,3.1,4.7,3.1c5.3-0.2,10.8-0.7,15.6,2.1c6.6,3.9,13.1,2.8,19.7,0.7
			c0.8-0.3,1.5-1.2,2.2-1.9c-0.9-0.4-1.8-1.1-2.8-1.2c-3.3-0.2-6.6-0.1-9.9-0.1c-6.1-0.1-12.4-1.5-16.8-5.3
			C428.6,356.8,423.5,358,417.5,358.6z M252.7,433.3c-0.6,0-0.9-0.1-1,0c-3.9,6.6-7.7,13.2-11.4,19.9c-0.2,0.5,0.7,2,1.4,2.4
			c2.2,1.2,4.7,2.1,7,3.2c1.5,0.7,2.4,1.2,3-1.1c1.4-6.1,3.1-12.1,4.7-18.1c0.4-1.6,0.6-3.3,0.8-5c-4-0.5-3.9,3.3-6.3,5.2
			C251.6,437.3,252.1,435.3,252.7,433.3z M230.7,423.6c0.3-0.4,0.4-0.7,0.6-0.8c1.5-0.8,2.7-1.9,1.3-3.5c-0.4-0.4-2.3-0.1-3.1,0.5
			c-3.5,2.5-6.9,5.2-10.2,7.9c-0.4,0.3-0.5,1.8-0.2,2.2c2.6,3.1,5.4,6.1,8.3,9.2c3.9-3.6,7.4-7,11-10.2c2.2-1.9,2.5-3.8,0.6-6.5
			c-2.6,1.9-5.2,3.8-7.8,5.8c-0.1-0.1-0.2-0.2-0.4-0.4c0.7-1,1.3-2,2.1-3.1C232.1,424.3,231.5,423.9,230.7,423.6z M393.4,386.3
			c-11.3-0.7-17.3,14.4-15.8,25.5c4.6-1.2,8.4-3.6,10.2-7.9C390.1,398.3,391.5,392.3,393.4,386.3z M431.7,383.7
			c-1.6-13.2-14-14.9-20.5-9.7c0.3,1.2,0.6,2.4,0.8,3.5c2.2,0.4,4.4,0.7,6.5,1.1c0,0.3,0,0.6-0.1,1c-2.9,0.4-5.8,0.4-8.6,1.2
			c-2.6,0.7-6.2-0.8-8,3C412.1,383.7,421.9,383.7,431.7,383.7z M174.6,347.2c0.2-0.4,0.5-0.7,0.7-1.1c-0.3-1-0.4-2.1-0.8-3
			c-2.4-5.1-6.2-8.9-11.3-11.3c-0.8-0.4-2-0.6-2.7-0.3c-2.6,1-5.1,2.3-7.7,3.5c-1.5,0.7-1.8,1.5-0.9,3c1.8,2.9,4,4.8,7.6,5.4
			C164.6,344.3,169.6,345.9,174.6,347.2z M539.4,173.3c-5.7,4-4.2,10.2-3.1,16.8c2.5-1.1,4.9-2,7-3.2c2.5-1.4,4.9-1.7,7.3-0.1
			c3.4,2.1,6.4,1.7,9.1-1.8C553.1,181.2,546.5,177.4,539.4,173.3z M532.9,171.2c0.3,0.1,0.6,0.2,0.9,0.3c0.6-0.7,1.6-1.4,1.7-2.2
			c1-5.1,2.3-10.3,2.4-15.5c0.1-4.9-0.9-9.9-1.7-14.8c-0.7-3.7-1.9-7.3-2.9-11C528,142.7,533.5,156.9,532.9,171.2z M448.4,305.4
			c-4.6-3-9.6-6.2-14.8-9.6c-0.1,1.3-0.2,2.3-0.2,3.2c0,3.5,0,7.1,0.1,10.6c0,0.8,0.5,1.8,1.1,2.2c2.6,1.5,5.2,3.2,8.1,4.1
			c3.1,1,7-2.4,6.4-5C448.7,309.1,448.6,307.3,448.4,305.4z M439.4,255.6c2.1,2.1,4.1,4,5.9,6.1c1.5,1.7,2.8,1.9,5.1,1.4
			c1.9-0.5,4.3-0.2,6.2,0.4c2.1,0.7,3.8,2.5,5.9,3.4c1.5,0.6,3.3,0.4,5,0.5c-0.4-1.6-0.4-3.4-1.3-4.6
			C460.3,254.7,448.7,252.3,439.4,255.6z M517.6,402.8c1.3-9.1-23.9-16.5-34.3-15.5c1.3,0.9,2,1.6,2.9,2c7.5,3.7,15,7.4,22.6,10.9
			C511.4,401.4,514.4,401.9,517.6,402.8z M460.4,492.5c-2.5,6.4,4.3,28.2,9.3,30.1C472.5,508.4,469.1,497.2,460.4,492.5z
			 M183.8,514.1c-3.4-3.2-13.6-1.9-19.4,1.7c-6.7,4.2-13.3,10.8-12.6,14.1C162.3,524.7,172.9,519.5,183.8,514.1z M494.4,357.2
			c-3.4-1.7-6.3,0-8.4,1.7c-7,5.8-13.6,12-20.4,18.1c-0.2,0.2-0.2,0.7-0.3,1.2C472.1,378.3,492.4,363.8,494.4,357.2z M420,436.8
			c0.3,2.3,0.4,3.6,0.6,4.8c0.8,3.6,1.5,7.2,6.5,7c1.2-0.1,2.5,1,3.7,1c1.4,0,3.3-0.1,4.2-0.9c2.4-2.3,4.4-5,6.3-7.7
			c0.4-0.6,0.3-2.5-0.3-2.9c-1-0.6-3.1-1-3.5-0.5c-2.3,2.9-4.9,2.3-7.8,1.5C426.8,438.2,423.7,437.6,420,436.8z M490.3,541.6
			c5.2-9.7,4.6-38.3-4.2-42.3C487.4,513.3,488.9,527.6,490.3,541.6z M243.9,518.2c4.3,0,8.3-0.3,12.2,0.1c3.9,0.4,7.7,1.4,11.8,2.1
			c-1.1-6.8-6.1-11.3-11.5-10.9C249.5,510.1,244,514,243.9,518.2z M523.3,491.2c0.1-0.3,0.2-0.5,0.4-0.8c-5.4-2.3-10.8-4.8-16.4-7
			c-5.4-2.1-10.9-1.4-16.2,0.8c-1.1,0.4-2,1.3-3.7,2.4c11.5,1.6,22,3,32.6,4.5C521.1,491.4,522.2,491.2,523.3,491.2z M405.5,461.4
			c-0.3,0.3-0.5,0.6-0.8,0.9c4.6,4.2,9,8.6,13.8,12.6c1.4,1.1,3.6,1.5,5.5,1.7c2,0.3,4.1-0.6,3.9-2.9c-0.1-1.8-1-4.5-2.3-5.1
			C419,465.9,412.2,463.8,405.5,461.4z M574.5,246.9c3.3-1.6,6.2-3,9-4.5c0.7-0.4,1.8-1.4,1.6-1.9c-0.8-3.2-1.6-6.5-2.9-9.5
			c-0.7-1.5-2.1-3.2-4.7-1.9c1.7,6.5-5.8,7-7.5,11.6C571.5,242.8,573.1,245,574.5,246.9z M507.5,362c-2.3-1-3.8-1.6-5.2-2.4
			c-1.8-1-2.9-1-4.2,1c-1.4,2.2-3.3,4.4-5.5,5.8c-6.8,4.4-13.8,8.4-20.7,12.6c-1.5,0.9-2.6,2.4-3.9,3.7c2.1,0,4.3,0,6.4-0.1
			c0.5,0,0.9-0.6,1.3-0.9c7.3-5,14.5-10.1,21.9-14.9C500.5,365,503.7,363.9,507.5,362z M405.1,457.3c4,1.5,7.6,2.9,11.3,4.2
			c3.6,1.2,7.4,2.3,11.3,3.5c0.9-2.9,1.8-5.2,2.2-7.7c0.1-1.1-0.8-3-1.6-3.3c-1.3-0.4-3.8-0.2-4.3,0.6c-2.1,3.5-4.7,2.9-7.6,1.5
			C412.6,454.5,408.9,453.7,405.1,457.3z M482.8,501.9c-6.9,5.2-1.1,31.1,4.1,38.5C485.5,527.8,484.2,515.2,482.8,501.9z
			 M352.3,359.9c-0.5,7.5-0.9,14.3-1.4,21.8c6.5-2.3,9.9-6.4,13-10.8C360.2,367.3,356.6,364,352.3,359.9z M238.5,520.7
			c1.8-5.6-2-10.7-6.7-12.4c-4.8-1.7-10.4,0.1-12.5,4C225.6,515.1,231.9,517.8,238.5,520.7z M179.8,480.6c0,0.8-0.1,1.5,0,2.2
			c0.9,5.6,1.6,11.3,2.7,16.9c0.4,2.1,1.5,4.2,2.4,6.5C192.3,499.8,188.6,483.7,179.8,480.6z M85.7,266.3c2.3,3.5,4.3,6.6,6.3,9.8
			c2,3.1,4.1,6.3,6.2,9.4c3.7-2.6,3.1-8.1,0.9-12.6C96.3,266.9,92.8,265.2,85.7,266.3z M351,389.3c-0.4,0.1-0.9,0.3-1.3,0.4
			c-1.5,7.6-3.7,15-4,23.6c7-3.6,9.3-9.4,9.8-15.4C355.6,395.2,352.6,392.2,351,389.3z M476.3,287.6c3-4.9-0.7-15.3-5.6-16.8
			c-0.4-0.1-1,0.1-1.5,0.3c-1.9,0.6-3.8,1.3-5.8,1.9c0.9,3.6,1.8,7,6.3,8.6C472.2,282.5,474,285.4,476.3,287.6z M189.4,476.6
			c3.4,7.3,6.7,14.3,10.1,21.3c4.2-3.2,4.7-5.9,2.4-11.4C199.3,480.6,193.8,476,189.4,476.6z M167.6,453.7c-0.5,0.4-1,0.8-1.6,1.2
			c-2,7.5,0.1,14.6,1.9,21.8c0.1,0.4,2.1,0.9,2.5,0.5c2.9-2.4,4-5.9,3.1-9.4c-1.1-3.9-3.1-7.6-4.7-11.3
			C168.4,455.6,168,454.7,167.6,453.7z M498.1,383c0,0.4,0,0.8,0,1.2c2.8,0.2,5.6,0.7,8.4,0.6c5.4-0.2,10.8-0.5,16.2-1.1
			c1-0.1,2-1.6,2.9-2.4c-1-0.8-1.9-1.9-3-2.2C513.8,376.5,506.2,381.1,498.1,383z M273.9,517.6c5.8-3,9.8-7.5,13.9-11.9
			c1.4-1.5,0-2.2-1.5-2.5c-1.9-0.3-3.8-0.8-5.7-1c-0.9-0.1-2.1,0-2.6,0.5C274.3,506.9,272.5,511.7,273.9,517.6z M457.6,422.3
			c0.4,0.1,0.8,0.1,1.2,0.2c1-1.8,2.7-3.6,2.9-5.4c0.4-5,0.3-10.1,0-15.1c0-1-1.3-2.5-2.2-2.7c-2-0.6-2.6,1.1-2.7,2.7
			c-0.3,4.5-0.7,9.1-0.6,13.6C456.2,417.9,457.1,420.1,457.6,422.3z M174.9,449.3c3.1,7.5,6,14.6,9.2,22.4c3.5-4.9,3.5-9.4,2-13.9
			C184.3,452.7,180.8,449.6,174.9,449.3z M510.4,365.6c-4.9-0.9-23.5,9.2-27.4,14.7C489.6,380.9,508.1,371.1,510.4,365.6z
			 M525.1,288.5c-0.5-4-1-7.3-1.2-10.6c-0.3-3.7-0.3-7.5-0.5-11.2c-0.2-3.9-3.1-3.9-6.2-4.2c1.6,4.8,4.5,9.3,4.3,13.7
			c-0.2,4.5-3.4,8.8-5.5,13.8C519.3,289.5,522.4,288.9,525.1,288.5z M478.4,404.1c-3-2-5.4-3.8-8-5.2c-2.7-1.5-5.4-0.6-5.3,1.7
			c0.1,4.4,0.6,8.7,0.9,13.4c2.3-1.8,4.3-3.2,6.2-4.8C474.2,407.7,476.1,406,478.4,404.1z M528.9,478.9c0.3-5.3-17.6-13.9-24-11.7
			C507.4,471.3,523.9,479.4,528.9,478.9z M487.8,489.1c5.8,6,30,9.5,35.2,4.8C511.2,492.3,499.5,490.7,487.8,489.1z M483.9,461.5
			c0.2,0.4,0.3,0.9,0.5,1.2c3.3,4,6.6,8,9.9,12c3.1,3.8,4.7,4.2,9,2.4C501.8,471.5,488.8,461,483.9,461.5z M418.4,402.7
			c-6-4.6-11.3-8.7-16.6-12.8c-0.4,0.2-0.7,0.4-1.1,0.6c1.7,4.3,3.3,8.7,5.3,12.9c0.4,0.8,2.1,1.5,3.1,1.3
			C412.1,404.3,415.1,403.5,418.4,402.7z M168.9,413.8c4-2.7,4.7-6.3,4.9-10c0.3-6.6-2.8-13.7-6.7-15.3
			C167.6,396.8,168.2,404.9,168.9,413.8z M448.3,300.1c0.5-7.4-1.9-14.6-5.2-16c-2,3.1-4,6.1-6.2,9.4
			C439.9,296.6,443.1,299.8,448.3,300.1z M407.8,389.4c3.5,5.6,11,8.6,16.3,6.4C422.4,386,414.4,385.7,407.8,389.4z M451.1,430.6
			c4.5-1.4,5.6-3.7,4.1-7.4c-0.9-2.3-1.4-4.8-1.6-7.2c-0.2-5-0.1-10.1-0.1-15.2c-4.8-1-5.8,0.2-4.5,5.1c1.7,6.9,4.6,13.8,2.7,21.2
			C451.5,428.2,451.4,429.3,451.1,430.6z M488.2,456.8c0,0.4,0,0.9,0,1.3c8.7,2.6,17.4,5.5,27.1,3.6c-0.8-1.2-1.8-2.5-2.9-2.7
			c-5.5-0.9-11.1-1.6-16.6-2.1C493.3,456.6,490.8,456.8,488.2,456.8z M141,333.5c1.1-4.9-1.2-9.2-4.6-12.7
			c-3.4-3.5-7.7-5.4-12.8-3.8C129.5,322.5,135.3,328,141,333.5z M82.9,256.2c2.9-4.2,1.2-12.3-3.8-16.6c-3.6-3.1-7-3.9-8.2-2.8
			C75,243.3,79,249.8,82.9,256.2z M468.8,388.5c-0.3,0.5-0.7,0.9-1,1.4c0.6,0.8,1.1,1.7,1.8,2.4c3.2,2.8,6.5,5.4,9.6,8.3
			c2.5,2.3,5,1.5,7.4,0.2c0.4-0.2,0.5-2.3,0.2-2.4C480.8,395,474.8,391.8,468.8,388.5z M431.3,191.4c-0.4-0.2-0.7-0.4-1.1-0.6
			c-1.4,1.6-2.8,3.2-4.1,4.8c-3.6,4.5-5.4,9.6-4.9,15.4c0.1,1.6,0.8,3.3,2.8,2.6c0.6-0.2,1.1-2.1,0.9-3c-0.5-2.3-0.3-3.7,2-3.5
			c0.6-3,1-5.9,1.7-8.6C429.2,196.1,430.4,193.8,431.3,191.4z M570.7,234.5c2.6-1,5.7-8.2,4.8-10.9c-0.7-2.1-6-3.3-10.9-2
			C566.6,225.9,568.6,230,570.7,234.5z M56.6,195.9c-0.2,0,0.1,0,0.2-0.1c0.3-0.2,0.6-0.4,0.8-0.6c2.7-3.2,1.9-6.8,0.5-10.1
			c-1.5-3.5-3.9-6.3-7.7-7.4c-1.6-0.4-2.2,0.6-1.5,2.1C51.4,185.2,53.9,190.4,56.6,195.9z M161.6,429.2c-1.6,7-3.2,14.1-4.8,21.1
			c2.8,0.4,5.6-1.5,6.5-4.2C165.2,440.4,164.3,430.8,161.6,429.2z M58.2,204.5c3.4,6.1,6.8,12.2,10.2,18.3c2.2-3,1.6-8.4-1.8-13.6
			C64.2,205.4,61.1,203.8,58.2,204.5z M47.8,165.3c0.4,0,0.8-0.1,1.3-0.1c2.1-4.3,1.7-8.8-0.2-13.2c-1.2-2.8-2.8-5.2-6.7-5.3
			C44.1,153.2,46,159.3,47.8,165.3z M589.1,241.4c3-2.6,5.6-4.9,9-7.9c-2-1.6-3.5-3.2-5.4-4.1c-1.1-0.6-2.8-0.5-4.1-0.2
			c-1.6,0.5-2.1,1.7-1.5,3.6C587.9,235.4,588.3,238.1,589.1,241.4z M472.5,361.9c0.3,0.3,0.5,0.6,0.8,1c1.6-0.9,3.2-1.8,4.9-2.8
			c3.7-2.1,7.3-4.1,10.9-6.3c0.5-0.3,0.6-2.3,0.4-2.4c-2.5-1.4-8.1,0.2-10.1,2.6c-1.6,1.9-3.3,3.7-4.9,5.6
			C473.8,360.3,473.2,361.1,472.5,361.9z M433.5,212.1c4.2,1.2,5.1,0.7,5.6-3c0.7-5.4-2.5-9.3-5-13.7c0.5,3.8-2.6,7.6,0.5,11.3
			c0.3,0.3,0.1,1.2-0.1,1.8C434.3,209.7,433.9,210.8,433.5,212.1z M170.9,421.7c1.5,7,2.9,13.8,4.4,21
			C180.2,435.9,177.4,424,170.9,421.7z M477,387.5c-0.2,0.4-0.4,0.7-0.6,1.1c0.3,0.3,0.4,0.7,0.8,0.9c4.5,3.1,8.9,6.4,13.7,9.1
			c2.1,1.1,4.9,0.7,7.5,1c0.1-0.5,0.2-1,0.4-1.4C491.4,394.6,484.2,391.1,477,387.5z M451.3,207.8c-6.7-0.7-7.6-0.1-7.8,4.9
			c-0.1,2.5,3.3,4.6,7.8,4.6C451.3,214.2,451.3,211.1,451.3,207.8z M118.1,306.6c1.4-4.1-1.1-7.1-3.6-9.8c-2.5-2.7-5.6-4.3-9.8-2.7
			C109.2,298.4,113.6,302.5,118.1,306.6z M637.9,175.7c3,0,5.5,0.2,8-0.1c3-0.3,3.6-1.8,2.3-4.5c-1.6-3.2-6.4-3.2-8.5,0
			C639,172.4,638.7,173.8,637.9,175.7z M159.6,400.9c-0.3-0.1-0.6-0.1-0.9-0.2c-1.3,5.7-2.6,11.5-4,17.3
			C160.2,417.5,162.4,409.3,159.6,400.9z M354.2,305.3c-0.6,12.9-0.6,10.6,8.5,8.7c0.2,0,0.3-0.3,0.9-0.9
			C360.6,310.6,357.6,308.1,354.2,305.3z M407.7,451.6c-2.8-2-4.9-3.5-7.1-4.8c-0.7-0.4-2-0.6-2.5-0.2c-0.6,0.5-1.2,1.8-1,2.5
			c0.6,2.1,1.7,4,2.6,6.1C402.6,453.9,404.8,452.9,407.7,451.6z M436.8,428.1c0,1.1-0.2,1.9,0,2.1c2.9,2.3,5.7,4.5,8.8,6.5
			c0.5,0.3,1.9-1,2.9-1.5c-0.4-0.8-0.7-1.8-1.4-2.3c-1.8-1.3-3.7-2.6-5.7-3.6C440.1,428.7,438.5,428.5,436.8,428.1z M486.1,482.7
			c2.5-1.1,4.6-2,5.7-2.5c-2-2.5-3.6-4.6-5.7-7.2C486.1,476.4,486.1,479.1,486.1,482.7z M353.4,327.4c0.1,4.9-2,9.2-0.1,13.6
			C357.3,339.4,357.4,332.6,353.4,327.4z M464.8,373.6c-0.2-0.3-0.4-0.6-0.6-0.9c-1.1,0.4-2.3,0.7-3.4,1.2c-1.4,0.7-2.7,1.7-4.1,2.6
			c1.1,1,2.3,2,3.7,3.3C462.1,377.5,463.5,375.5,464.8,373.6z M503.7,234c-2.8,0.7-4.8,1.3-6.8,1.8c0,0.4-0.1,0.8-0.1,1.2
			c1.4,1.1,2.9,2.2,4.7,3.7C502.1,238.5,502.7,236.9,503.7,234z M429.1,316.9c3,0.5,5.4,1,7.8,1.4c0.2-0.4,0.3-0.9,0.5-1.3
			c-2-1.1-4-2.2-6.1-3.4C430.5,314.7,430.1,315.4,429.1,316.9z M459.7,269.6c-1.5-3.3-5-4.5-9-3.5
			C454.2,267.5,456.9,268.6,459.7,269.6z"/>
	</g>
</g>
</svg>
